<svg id="Layer_1" data-name="Layer 1" xmlns="http://www.w3.org/2000/svg" xmlns:xlink="http://www.w3.org/1999/xlink" viewBox="0 0 100 100"><defs><style>.cls-1{fill:url(#linear-gradient);}.cls-2{fill:none;}.cls-3{fill:#fff;}</style><linearGradient id="linear-gradient" y1="50" x2="100" y2="50" gradientUnits="userSpaceOnUse"><stop offset="0" stop-color="#ff8034"/><stop offset="0.08" stop-color="#ff7c36"/><stop offset="0.64" stop-color="#ff6744"/><stop offset="1" stop-color="#ff5f49"/></linearGradient></defs><title>icon2</title><circle class="cls-1" cx="50" cy="50" r="50"/><path class="cls-2" d="M29.59,24.12V78.24a.72.72,0,0,0,.72.72H70.75a.72.72,0,0,0,.72-.72V24.12a.72.72,0,0,0-.72-.72H62.7v1.86h5.45a1.11,1.11,0,0,1,1.11,1.11V75.49a1.11,1.11,0,0,1-1.11,1.11H32.91a1.11,1.11,0,0,1-1.11-1.11V26.38a1.11,1.11,0,0,1,1.11-1.11h5.45V23.4H30.31A.72.72,0,0,0,29.59,24.12Z"/><circle class="cls-2" cx="40.81" cy="65.18" r="1.22"/><circle class="cls-2" cx="40.81" cy="56.67" r="1.22"/><circle class="cls-2" cx="40.81" cy="39.65" r="1.22"/><circle class="cls-2" cx="40.81" cy="48.16" r="1.22"/><path class="cls-2" d="M40.58,28.08a1.51,1.51,0,0,0,1.52,1.49H59a1.51,1.51,0,0,0,1.52-1.49v-.6H40.58Z"/><rect class="cls-2" x="40.58" y="23.4" width="19.89" height="1.86"/><path class="cls-2" d="M34,27.49V74.38H67V27.49H62.7v.6A3.73,3.73,0,0,1,59,31.8H42.11a3.73,3.73,0,0,1-3.74-3.71v-.6Zm6.79,41.13a3.45,3.45,0,1,1,3.45-3.45A3.45,3.45,0,0,1,40.81,68.62Zm0-8.51a3.45,3.45,0,1,1,3.45-3.44A3.45,3.45,0,0,1,40.81,60.11Zm0-8.51a3.44,3.44,0,1,1,3.45-3.45A3.45,3.45,0,0,1,40.81,51.61ZM47.4,38.54H62.58a1.11,1.11,0,0,1,0,2.22H47.4a1.11,1.11,0,0,1,0-2.22Zm0,8.51H62.58a1.11,1.11,0,1,1,0,2.22H47.4a1.11,1.11,0,1,1,0-2.22Zm0,8.51H62.58a1.11,1.11,0,0,1,0,2.22H47.4a1.11,1.11,0,0,1,0-2.22Zm0,8.51H62.58a1.11,1.11,0,1,1,0,2.22H47.4a1.11,1.11,0,0,1,0-2.22ZM40.81,36.21a3.45,3.45,0,1,1-3.45,3.45A3.45,3.45,0,0,1,40.81,36.21Z"/><path class="cls-3" d="M70.75,21.18H30.31a2.94,2.94,0,0,0-2.94,2.94V78.24a2.94,2.94,0,0,0,2.94,2.94H70.75a2.94,2.94,0,0,0,2.94-2.94V24.12A2.94,2.94,0,0,0,70.75,21.18ZM38.36,25.26H32.91a1.11,1.11,0,0,0-1.11,1.11V75.49a1.11,1.11,0,0,0,1.11,1.11H68.15a1.11,1.11,0,0,0,1.11-1.11V26.38a1.11,1.11,0,0,0-1.11-1.11H62.7V23.4h8.06a.72.72,0,0,1,.72.72V78.24a.72.72,0,0,1-.72.72H30.31a.72.72,0,0,1-.72-.72V24.12a.72.72,0,0,1,.72-.72h8.06Zm3.74,6.53H59a3.73,3.73,0,0,0,3.74-3.71v-.6H67V74.38H34V27.49h4.34v.6A3.73,3.73,0,0,0,42.11,31.8Zm18.37-3.71A1.51,1.51,0,0,1,59,29.58H42.11a1.51,1.51,0,0,1-1.52-1.49v-.6H60.48ZM40.58,25.26V23.4H60.48v1.86Z"/><path class="cls-3" d="M40.81,43.1a3.45,3.45,0,1,0-3.45-3.45A3.45,3.45,0,0,0,40.81,43.1Zm-1.22-3.45a1.22,1.22,0,1,1,1.22,1.22A1.22,1.22,0,0,1,39.59,39.65Z"/><path class="cls-3" d="M47.4,40.77H62.58a1.11,1.11,0,0,0,0-2.22H47.4a1.11,1.11,0,0,0,0,2.22Z"/><path class="cls-3" d="M40.81,44.72a3.45,3.45,0,1,0,2.44,1A3.45,3.45,0,0,0,40.81,44.72ZM42,48.16a1.22,1.22,0,1,1-1.22-1.22A1.22,1.22,0,0,1,42,48.16Z"/><path class="cls-3" d="M47.4,49.27H62.58a1.11,1.11,0,1,0,0-2.22H47.4a1.11,1.11,0,1,0,0,2.22Z"/><path class="cls-3" d="M40.81,53.22a3.45,3.45,0,1,0,3.45,3.45A3.45,3.45,0,0,0,40.81,53.22ZM42,56.67a1.22,1.22,0,1,1-1.22-1.22A1.22,1.22,0,0,1,42,56.67Z"/><path class="cls-3" d="M47.4,57.78H62.58a1.11,1.11,0,0,0,0-2.22H47.4a1.11,1.11,0,0,0,0,2.22Z"/><path class="cls-3" d="M40.81,61.73a3.45,3.45,0,1,0,3.45,3.44A3.45,3.45,0,0,0,40.81,61.73ZM42,65.18A1.22,1.22,0,1,1,40.81,64,1.22,1.22,0,0,1,42,65.18Z"/><path class="cls-3" d="M47.4,66.29H62.58a1.11,1.11,0,1,0,0-2.22H47.4a1.11,1.11,0,0,0,0,2.22Z"/></svg>