<svg id="Layer_1" data-name="Layer 1" xmlns="http://www.w3.org/2000/svg" xmlns:xlink="http://www.w3.org/1999/xlink" viewBox="0 0 100 100"><defs><style>.cls-1{fill:url(#linear-gradient);}.cls-2{fill:none;}.cls-3{fill:#fff;}</style><linearGradient id="linear-gradient" y1="50" x2="100" y2="50" gradientUnits="userSpaceOnUse"><stop offset="0" stop-color="#ff8034"/><stop offset="0.08" stop-color="#ff7c36"/><stop offset="0.64" stop-color="#ff6744"/><stop offset="1" stop-color="#ff5f49"/></linearGradient></defs><title>icon3</title><circle class="cls-1" cx="50" cy="50" r="50"/><path class="cls-2" d="M66.18,37.92a.71.71,0,0,0-.3-.61,3.07,3.07,0,0,1-.71-4,.78.78,0,0,0,.06-.62,1.29,1.29,0,0,0-.59-.51,3.07,3.07,0,0,1-2-3.45.78.78,0,0,0-.16-.69.71.71,0,0,0-.61-.3,3.07,3.07,0,0,1-3.11-2.6.79.79,0,0,0-.4-.56.8.8,0,0,0-.65-.08,3.18,3.18,0,0,1-3.84-1.36.82.82,0,0,0-.59-.43,1.13,1.13,0,0,0-.69.24,3.06,3.06,0,0,1-4.06,0,.63.63,0,0,0-.66-.21.8.8,0,0,0-.57.41,3.21,3.21,0,0,1-3.82,1.4.8.8,0,0,0-.69.06c-.21.08-.33.2-.41.57a3.13,3.13,0,0,1-3.13,2.59.7.7,0,0,0-.59.3.77.77,0,0,0-.16.69,3,3,0,0,1-2,3.48c-.17,0-.36.11-.55.5a.8.8,0,0,0,.08.65,3.06,3.06,0,0,1-.71,4h0a.76.76,0,0,0,0,1.22,3.07,3.07,0,0,1,.71,4,.78.78,0,0,0-.06.62,1.29,1.29,0,0,0,.59.51,3.06,3.06,0,0,1,2,3.45.78.78,0,0,0,.16.69.71.71,0,0,0,.61.3,3.11,3.11,0,0,1,3.11,2.6.79.79,0,0,0,.4.56.81.81,0,0,0,.65.08l.08,0a4.69,4.69,0,0,1,1.08-.16,3,3,0,0,1,2.7,1.58.8.8,0,0,0,.57.41,1.13,1.13,0,0,0,.69-.24,3.13,3.13,0,0,1,2-.76,3,3,0,0,1,2,.78.63.63,0,0,0,.66.21.8.8,0,0,0,.57-.41,3.21,3.21,0,0,1,3.82-1.4.81.81,0,0,0,.68-.06c.21-.08.33-.2.41-.57a3.14,3.14,0,0,1,3-2.59h.08a.71.71,0,0,0,.61-.3.77.77,0,0,0,.16-.69,3,3,0,0,1,2-3.48c.17,0,.36-.11.55-.5a.8.8,0,0,0-.08-.65,3.06,3.06,0,0,1,.71-4A.72.72,0,0,0,66.18,37.92ZM50.51,50.24A12.32,12.32,0,1,1,62.84,37.92,12.34,12.34,0,0,1,50.51,50.24Z"/><path class="cls-2" d="M50.51,27.88a10,10,0,1,0,10,10A10.15,10.15,0,0,0,50.51,27.88Zm4.38,9.55L53.28,39l.35,2.24a.79.79,0,0,1-.2.57.48.48,0,0,1-.48.25H52.7L50.59,41l-2,1a.69.69,0,0,1-.36.12.61.61,0,0,1-.37-.12.63.63,0,0,1-.32-.62l.35-2.3-1.61-1.54A.79.79,0,0,1,46.1,37a.58.58,0,0,1,.61-.61l2.18-.35,1.05-2a.63.63,0,0,1,.6-.38h0a.65.65,0,0,1,.63.43l1,2,2.37.21h0a.69.69,0,0,1,.57.61A.79.79,0,0,1,54.89,37.43Z"/><path class="cls-2" d="M60.32,52.37a3,3,0,0,1-1,.86,3.23,3.23,0,0,1-2.68.17.77.77,0,0,0-1,.37,3.07,3.07,0,0,1-4.06,1.28v14.7l8.67,6.94Z"/><path class="cls-2" d="M49.29,55.09a3,3,0,0,1-1.37.33,1.29,1.29,0,0,1-.32,0l-.14,0a3.12,3.12,0,0,1-2.23-1.56.77.77,0,0,0-1-.37,3.2,3.2,0,0,1-2.69-.17,2.84,2.84,0,0,1-1-.87V76.76l8.67-6.94Z"/><path class="cls-3" d="M54.5,36.25h0L52.13,36l-1-2a.65.65,0,0,0-.63-.43h0a.63.63,0,0,0-.6.38l-1.05,2-2.18.35a.58.58,0,0,0-.61.61.79.79,0,0,0,.19.58l1.61,1.54-.35,2.3a.63.63,0,0,0,.32.62.61.61,0,0,0,.37.12.69.69,0,0,0,.36-.12l2-1L52.7,42.1h.25a.48.48,0,0,0,.48-.25.79.79,0,0,0,.2-.57L53.28,39l1.61-1.61a.79.79,0,0,0,.19-.57A.69.69,0,0,0,54.5,36.25Z"/><path class="cls-3" d="M50.51,25.59A12.32,12.32,0,1,0,62.84,37.92,12.34,12.34,0,0,0,50.51,25.59Zm10,12.32a10,10,0,1,1-10-10A10.05,10.05,0,0,1,60.55,37.92Z"/><path class="cls-3" d="M67.19,40.33a3.17,3.17,0,0,0,0-4.84.79.79,0,0,1-.23-1,2.81,2.81,0,0,0,.26-2.63A3.07,3.07,0,0,0,65.3,30a.78.78,0,0,1-.49-.94,3.17,3.17,0,0,0-.7-2.6,3.22,3.22,0,0,0-2.42-1.12.83.83,0,0,1-.84-.68,3,3,0,0,0-1.48-2.17,3.19,3.19,0,0,0-2.69-.17.77.77,0,0,1-1-.37,3.11,3.11,0,0,0-2.17-1.56,2.92,2.92,0,0,0-2.52.69.78.78,0,0,1-1,0,3,3,0,0,0-2.52-.7A2.93,2.93,0,0,0,45.31,22a.77.77,0,0,1-1,.37,3.24,3.24,0,0,0-2.68.17,3,3,0,0,0-1.49,2.19.8.8,0,0,1-.84.66,3,3,0,0,0-2.42,1.12,3.07,3.07,0,0,0-.7,2.58.89.89,0,0,1-.49,1,3.07,3.07,0,0,0-1.92,1.82,2.79,2.79,0,0,0,.25,2.61.81.81,0,0,1-.24,1.06,3.43,3.43,0,0,0-1,2.4,3.23,3.23,0,0,0,1.13,2.42.79.79,0,0,1,.23,1A2.8,2.8,0,0,0,33.88,44a3.07,3.07,0,0,0,1.92,1.82.78.78,0,0,1,.49.94A3.16,3.16,0,0,0,37,49.34a3.4,3.4,0,0,0,1.43.94V79.23a1.08,1.08,0,0,0,.63,1,.92.92,0,0,0,.52.15,1.42,1.42,0,0,0,.77-.24l10.26-8.25,10.26,8.18.07,0a1.4,1.4,0,0,0,.63.19.74.74,0,0,0,.51-.14,1.2,1.2,0,0,0,.63-1V50.3a3.14,3.14,0,0,0,1.43-.95,3.07,3.07,0,0,0,.7-2.58.89.89,0,0,1,.49-1A3.07,3.07,0,0,0,67.22,44,2.79,2.79,0,0,0,67,41.38.8.8,0,0,1,67.19,40.33Zm-2,2.17a.8.8,0,0,1,.08.65c-.19.38-.37.46-.55.5a3,3,0,0,0-2,3.48.77.77,0,0,1-.16.69.71.71,0,0,1-.61.3h-.08a3.14,3.14,0,0,0-3,2.59c-.07.37-.2.49-.41.57a.81.81,0,0,1-.68.06,3.21,3.21,0,0,0-3.82,1.4.8.8,0,0,1-.57.41.63.63,0,0,1-.66-.21,3,3,0,0,0-2-.78,3.13,3.13,0,0,0-2,.76,1.13,1.13,0,0,1-.69.24.8.8,0,0,1-.57-.41,3,3,0,0,0-2.7-1.58,4.69,4.69,0,0,0-1.08.16l-.08,0a.81.81,0,0,1-.65-.08.79.79,0,0,1-.4-.56,3.11,3.11,0,0,0-3.11-2.6.71.71,0,0,1-.61-.3.78.78,0,0,1-.16-.69,3.06,3.06,0,0,0-2-3.45,1.29,1.29,0,0,1-.59-.51.78.78,0,0,1,.06-.62,3.07,3.07,0,0,0-.71-4,.76.76,0,0,1,0-1.22h0a3.06,3.06,0,0,0,.71-4,.8.8,0,0,1-.08-.65c.19-.38.37-.46.55-.5a3,3,0,0,0,2-3.48.77.77,0,0,1,.16-.69.7.7,0,0,1,.59-.3,3.13,3.13,0,0,0,3.13-2.59c.07-.37.2-.49.41-.57a.8.8,0,0,1,.69-.06,3.21,3.21,0,0,0,3.82-1.4.8.8,0,0,1,.57-.41.63.63,0,0,1,.66.21,3.06,3.06,0,0,0,4.06,0,1.13,1.13,0,0,1,.69-.24.82.82,0,0,1,.59.43,3.18,3.18,0,0,0,3.84,1.36.8.8,0,0,1,.65.08.79.79,0,0,1,.4.56,3.07,3.07,0,0,0,3.11,2.6.71.71,0,0,1,.61.3.78.78,0,0,1,.16.69,3.07,3.07,0,0,0,2,3.45,1.29,1.29,0,0,1,.59.51.78.78,0,0,1-.06.62,3.07,3.07,0,0,0,.71,4,.76.76,0,0,1,0,1.22A3.06,3.06,0,0,0,65.16,42.5ZM51.65,55.06a3.07,3.07,0,0,0,4.06-1.28.77.77,0,0,1,1-.37,3.23,3.23,0,0,0,2.68-.17,3,3,0,0,0,1-.86V76.7l-8.67-6.94Zm-11-2.69a2.84,2.84,0,0,0,1,.87,3.2,3.2,0,0,0,2.69.17.77.77,0,0,1,1,.37,3.12,3.12,0,0,0,2.23,1.56l.14,0a1.29,1.29,0,0,0,.32,0,3,3,0,0,0,1.37-.33V69.82l-8.67,6.94Z"/></svg>