<svg id="Layer_1" data-name="Layer 1" xmlns="http://www.w3.org/2000/svg" xmlns:xlink="http://www.w3.org/1999/xlink" viewBox="0 0 100 100"><defs><style>.cls-1{fill:url(#linear-gradient);}.cls-2{fill:none;}.cls-3{fill:#fff;}</style><linearGradient id="linear-gradient" y1="50" x2="100" y2="50" gradientUnits="userSpaceOnUse"><stop offset="0" stop-color="#ff8034"/><stop offset="0.08" stop-color="#ff7c36"/><stop offset="0.64" stop-color="#ff6744"/><stop offset="1" stop-color="#ff5f49"/></linearGradient></defs><title>icon1</title><circle class="cls-1" cx="50" cy="50" r="50"/><path class="cls-2" d="M50.69,25.46A23.74,23.74,0,1,0,74.43,49.2,23.77,23.77,0,0,0,50.69,25.46Zm-1.27,2.42a1.27,1.27,0,1,1,2.54,0V30a1.27,1.27,0,0,1-1.27,1.27A1.23,1.23,0,0,1,49.42,30ZM28.49,49.2a1.32,1.32,0,0,1,1.27-1.27h2.08a1.32,1.32,0,0,1,1,.44,1.1,1.1,0,0,1,.25.87,1.32,1.32,0,0,1-1.27,1.23H29.76A1.27,1.27,0,0,1,28.49,49.2ZM35,59.55l-1.78,1a1.2,1.2,0,0,1-.63.14,1.31,1.31,0,0,1-1.11-.61A1.28,1.28,0,0,1,32,58.31h0l1.77-1A1.29,1.29,0,0,1,35,59.55Zm.56-19.1a1.26,1.26,0,0,1-1.12.55,1,1,0,0,1-.68-.17L32,39.78a1.28,1.28,0,0,1,1.36-2.16l1.77,1.08A1.25,1.25,0,0,1,35.57,40.45Zm6.69,26-1.08,1.77a1.31,1.31,0,0,1-1.12.63,1,1,0,0,1-.68-.17,1.21,1.21,0,0,1-.54-.79,1.34,1.34,0,0,1,.18-1l1.08-1.77a1.35,1.35,0,0,1,.76-.6,1.23,1.23,0,0,1,1,.13,1.22,1.22,0,0,1,.58.81A1.34,1.34,0,0,1,42.27,66.46ZM42.1,33.62l0,0a1.17,1.17,0,0,1-.61.13,1.3,1.3,0,0,1-1.11-.61l-1-1.82a1.29,1.29,0,0,1,2.26-1.26l1,1.78A1.39,1.39,0,0,1,42.1,33.62ZM52,70.3a1.32,1.32,0,0,1-1.27,1.25,1.27,1.27,0,0,1-1.27-1.27l.08-2.1a1.27,1.27,0,0,1,2.54,0ZM50.69,51.16a2,2,0,0,1-1.27-3.62V33.27a1.27,1.27,0,0,1,2.54,0V47.46A2,2,0,0,1,52.73,49,2.06,2.06,0,0,1,50.69,51.16Zm11.63,17a1.16,1.16,0,0,1-.59.67,1.08,1.08,0,0,1-.65.15A1.31,1.31,0,0,1,60,68.33l-1-1.9a1.19,1.19,0,0,1-.1-1,1.16,1.16,0,0,1,.67-.71,1.33,1.33,0,0,1,1.06-.06,1.14,1.14,0,0,1,.65.63l.92,1.83A1.19,1.19,0,0,1,62.32,68.12Zm1.11-36-1.25,1.72a1.27,1.27,0,0,1-1,.6,1.09,1.09,0,0,1-.69-.25,1.22,1.22,0,0,1-.53-.78,1.34,1.34,0,0,1,.18-1l1.17-1.72A1.25,1.25,0,0,1,63,30.38a1.22,1.22,0,0,1,.58.81A1.34,1.34,0,0,1,63.43,32.14Zm6.7,29a1.29,1.29,0,0,1-1,.63.89.89,0,0,1-.74-.28l-1.68-1a1.38,1.38,0,0,1-.63-.91,1.12,1.12,0,0,1,.17-.87,1.22,1.22,0,0,1,.8-.56,1.36,1.36,0,0,1,1,.18l1.77,1.08A1.25,1.25,0,0,1,70.12,61.15Zm2.05-12.92a1.27,1.27,0,0,1,1.25,1.27,1.32,1.32,0,0,1-1.27,1.27l-2.1-.08h0a1.27,1.27,0,0,1,0-2.54l2.1.08Zm-2-10.13a1.08,1.08,0,0,1,.54.5,1,1,0,0,1,.23.79,1.28,1.28,0,0,1-.63.92l0,0-1.8.9a1.07,1.07,0,0,1-.66.15,1.3,1.3,0,0,1-1.11-.61,1.23,1.23,0,0,1-.13-1,1.16,1.16,0,0,1,.67-.71l1.81-.91A1.42,1.42,0,0,1,70.19,38.11Z"/><polygon class="cls-2" points="22.11 39.34 22.11 39.34 22.11 39.35 22.11 39.34"/><polygon class="cls-2" points="78.36 36.5 78.36 36.5 78.36 36.5 78.36 36.5"/><polygon class="cls-2" points="70.05 24.42 70.05 24.42 70.05 24.42 70.05 24.42"/><path class="cls-3" d="M68.27,23.3l.78.28.23.79a.69.69,0,0,0,.72.56.59.59,0,0,0,.6-.33l.49-.65L72,24a.6.6,0,0,0,.65-.58v-.23a.5.5,0,0,0-.08-.28l-.47-.71.26-.69a.64.64,0,0,0-.09-.84.78.78,0,0,0-.58-.22l-.14,0-.83.24-.64-.53a.5.5,0,0,0-.32-.11h-.23a.5.5,0,0,0-.35.15.72.72,0,0,0-.22.47l-.06.89-.8.46a.59.59,0,0,0-.37.61A.67.67,0,0,0,68.27,23.3ZM70,24.42h0Z"/><path class="cls-3" d="M80.81,35l-.47-.71.26-.69a.64.64,0,0,0-.09-.84.77.77,0,0,0-.58-.22l-.14,0L79,32.8l-.64-.53a.5.5,0,0,0-.32-.11h-.23a.5.5,0,0,0-.35.15.72.72,0,0,0-.22.47l-.06.91-.66.44a.59.59,0,0,0-.35.61.66.66,0,0,0,.54.64l.76.27.17.77a.69.69,0,0,0,.73.58.59.59,0,0,0,.59-.32l.48-.58.82.06a.55.55,0,0,0,.54-.3A.61.61,0,0,0,80.81,35Zm-2.45,1.5h0Z"/><path class="cls-3" d="M22.06,39.85a.59.59,0,0,0,.59-.32l.48-.58.93.06a.72.72,0,0,0,.71-.69.64.64,0,0,0-.16-.42l-.46-.68.27-.76a.63.63,0,0,0,.11-.36.65.65,0,0,0-.2-.47.77.77,0,0,0-.58-.22l-.14,0-.83.24-.64-.53a.5.5,0,0,0-.32-.11H21.6a.5.5,0,0,0-.35.15.72.72,0,0,0-.22.47l-.06.91L20.3,37a.59.59,0,0,0-.35.61.61.61,0,0,0,0,.08.5.5,0,0,0,.33.54l.83.3.23.79A.69.69,0,0,0,22.06,39.85Zm0-.5h0Z"/><path class="cls-3" d="M25.44,69.17l-.83-.12-.4-.74a.69.69,0,0,0-1.24,0l-.33.72-.74.11a.66.66,0,0,0-.65.65v.23a.5.5,0,0,0,.16.37l.65.59-.12.88v.15c0,.36.57.61.89.44l.76-.41.71.38a.64.64,0,0,0,.4.14h0a.63.63,0,0,0,.37-.12.59.59,0,0,0,.33-.59.5.5,0,0,0,0-.1L25.23,71l.58-.58a.77.77,0,0,0,.22-.58A.67.67,0,0,0,25.44,69.17Z"/><path class="cls-3" d="M33.9,74.4h0l-1.74-.2-.78-1.5a.69.69,0,0,0-1.24,0l-.72,1.57-1.66.26a.66.66,0,0,0-.65.65.78.78,0,0,0,.23.59L28.61,77l-.27,1.82a.63.63,0,0,0,.22.51.94.94,0,0,0,.51.15.5.5,0,0,0,.25-.06l1.53-.87,1.48.77a.63.63,0,0,0,.4.14h0a.64.64,0,0,0,.43-.17.72.72,0,0,0,.26-.64l-.34-1.75,1.2-1.27a.78.78,0,0,0,.22-.58A.65.65,0,0,0,33.9,74.4Z"/><path class="cls-3" d="M21.45,30.84l-.27,1.82a.63.63,0,0,0,.22.51.94.94,0,0,0,.51.15.5.5,0,0,0,.25-.06l1.53-.87,1.48.77a.63.63,0,0,0,.82,0,.72.72,0,0,0,.26-.64l-.34-1.75,1.2-1.27a.77.77,0,0,0,.22-.58.64.64,0,0,0-.6-.65L25,28l-.8-1.54a.5.5,0,0,0-.09-.12.74.74,0,0,0-.51-.22.58.58,0,0,0-.62.4l-.72,1.57-1.66.26a.66.66,0,0,0-.65.65.78.78,0,0,0,.23.59Z"/><path class="cls-3" d="M50.69,22.92A26.28,26.28,0,1,0,77,49.2,26.31,26.31,0,0,0,50.69,22.92Zm0,50A23.74,23.74,0,1,1,74.43,49.2,23.77,23.77,0,0,1,50.69,72.94Z"/><path class="cls-3" d="M52,47.46V33.27a1.27,1.27,0,0,0-2.54,0V47.54a2,2,0,0,0,1.27,3.62,2.06,2.06,0,0,0,2-2.12A2,2,0,0,0,52,47.46Z"/><path class="cls-3" d="M50.69,31.23A1.27,1.27,0,0,0,52,30V27.88a1.27,1.27,0,1,0-2.54,0V30A1.23,1.23,0,0,0,50.69,31.23Z"/><path class="cls-3" d="M33.1,49.24a1.1,1.1,0,0,0-.25-.87,1.32,1.32,0,0,0-1-.44H29.76a1.32,1.32,0,0,0-1.27,1.27,1.27,1.27,0,0,0,1.27,1.27h2.08A1.32,1.32,0,0,0,33.1,49.24Z"/><path class="cls-3" d="M50.84,66.94a1.27,1.27,0,0,0-1.27,1.25l-.08,2.1a1.27,1.27,0,0,0,1.27,1.27A1.32,1.32,0,0,0,52,70.3l.08-2.1A1.27,1.27,0,0,0,50.84,66.94Z"/><path class="cls-3" d="M68.81,49.43a1.27,1.27,0,0,0,1.25,1.27h0l2.1.08a1.32,1.32,0,0,0,1.27-1.27,1.27,1.27,0,0,0-1.25-1.27h0l-2.1-.08A1.27,1.27,0,0,0,68.81,49.43Z"/><path class="cls-3" d="M41.65,30.09a1.29,1.29,0,0,0-2.26,1.26l1,1.82a1.3,1.3,0,0,0,1.11.61,1.17,1.17,0,0,0,.61-.13l0,0a1.39,1.39,0,0,0,.56-1.75Z"/><path class="cls-3" d="M33.74,57.3,32,58.3h0a1.28,1.28,0,0,0-.47,1.78,1.31,1.31,0,0,0,1.11.61,1.2,1.2,0,0,0,.63-.14l1.78-1a1.29,1.29,0,0,0-1.27-2.25Z"/><path class="cls-3" d="M61.3,65.3a1.14,1.14,0,0,0-.65-.63,1.33,1.33,0,0,0-1.06.06,1.16,1.16,0,0,0-.67.71,1.19,1.19,0,0,0,.1,1l1,1.9a1.31,1.31,0,0,0,1.11.61,1.08,1.08,0,0,0,.65-.15,1.16,1.16,0,0,0,.59-.67,1.19,1.19,0,0,0-.1-1Z"/><path class="cls-3" d="M66.61,39.75a1.23,1.23,0,0,0,.13,1,1.3,1.3,0,0,0,1.11.61,1.07,1.07,0,0,0,.66-.15l1.8-.9,0,0A1.28,1.28,0,0,0,71,39.4a1,1,0,0,0-.23-.79,1.08,1.08,0,0,0-.54-.5,1.42,1.42,0,0,0-1.1,0L67.28,39A1.16,1.16,0,0,0,66.61,39.75Z"/><path class="cls-3" d="M35.17,38.69,33.4,37.61A1.28,1.28,0,0,0,32,39.78l1.74,1.06a1,1,0,0,0,.68.17,1.26,1.26,0,0,0,1.12-.55A1.25,1.25,0,0,0,35.17,38.69Z"/><path class="cls-3" d="M41.87,64.7a1.23,1.23,0,0,0-1-.13,1.35,1.35,0,0,0-.76.6L39,66.95a1.34,1.34,0,0,0-.18,1,1.21,1.21,0,0,0,.54.79,1,1,0,0,0,.68.17,1.31,1.31,0,0,0,1.12-.62l1.08-1.77a1.34,1.34,0,0,0,.18-1A1.22,1.22,0,0,0,41.87,64.7Z"/><path class="cls-3" d="M69.72,59.39,68,58.31a1.36,1.36,0,0,0-1-.18,1.22,1.22,0,0,0-.8.56,1.12,1.12,0,0,0-.17.87,1.38,1.38,0,0,0,.63.91l1.68,1a.89.89,0,0,0,.74.28,1.29,1.29,0,0,0,1-.63A1.25,1.25,0,0,0,69.72,59.39Z"/><path class="cls-3" d="M63,30.38a1.25,1.25,0,0,0-1.75.38l-1.17,1.72a1.34,1.34,0,0,0-.18,1,1.22,1.22,0,0,0,.53.78,1.09,1.09,0,0,0,.69.25,1.27,1.27,0,0,0,1-.6l1.25-1.72a1.34,1.34,0,0,0,.18-1A1.22,1.22,0,0,0,63,30.38Z"/></svg>