<svg id="Layer_1" data-name="Layer 1" xmlns="http://www.w3.org/2000/svg" viewBox="0 0 426.15 100"><defs><style>.cls-1{fill:#111;}</style></defs><title>logo</title><path class="cls-1" d="M66.67,24.42V37.84a2.72,2.72,0,0,1-2.75,2.75H44.66V95.93a2.72,2.72,0,0,1-2.75,2.75H24.75A2.72,2.72,0,0,1,22,95.93V40.59H2.75A2.72,2.72,0,0,1,0,37.84V24.42a2.79,2.79,0,0,1,2.75-2.75H63.92A2.79,2.79,0,0,1,66.67,24.42Z"/><path class="cls-1" d="M227,24.42V95.93a2.72,2.72,0,0,1-2.75,2.75H207a2.7,2.7,0,0,1-2.64-2.75V59.52s-21.45,32.12-23.76,35.2-3.52,4-6.27,4H161.81a2.72,2.72,0,0,1-2.75-2.75V24.42a2.72,2.72,0,0,1,2.75-2.75H179a2.72,2.72,0,0,1,2.75,2.75V61.5l24.75-37.07c1.21-1.76,2.31-2.75,5.61-2.75H224.3A2.72,2.72,0,0,1,227,24.42ZM212.64,2.75V13.42a2.72,2.72,0,0,1-2.75,2.75h-30.8a2.79,2.79,0,0,1-2.75-2.75V2.75A2.79,2.79,0,0,1,179.08,0h30.8A2.72,2.72,0,0,1,212.64,2.75Z"/><path class="cls-1" d="M257,82.51V95.93a2.72,2.72,0,0,1-2.75,2.75H240.68A2.7,2.7,0,0,1,238,95.93V82.51a2.7,2.7,0,0,1,2.64-2.75h13.53A2.72,2.72,0,0,1,257,82.51Z"/><path class="cls-1" d="M338.37,98.68H319.11c-2.31,0-3.85-1.43-5.61-4-1.1-1.65-10.12-15.18-16.61-25.08h-6.16V95.93A2.79,2.79,0,0,1,288,98.68H270.71A2.8,2.8,0,0,1,268,95.93V24.42a2.8,2.8,0,0,1,2.75-2.75H288a2.79,2.79,0,0,1,2.75,2.75V50.72h5.83c5.72-11.11,13-25.41,13.42-26.29,1.1-2,2.2-2.75,4.18-2.75h19.69c3.19,0,3.85,1.32,2.64,3.52-.77,1.54-13.53,27.06-18.37,35.86,4.51,6.71,21.12,31.79,22.22,33.77C341.67,97,340.24,98.68,338.37,98.68Z"/><path class="cls-1" d="M426.15,95.93a2.72,2.72,0,0,1-2.75,2.75H411a2.72,2.72,0,0,1-2.75-2.75V92.08A32.37,32.37,0,0,1,386.54,100c-22.44,0-41.25-17.82-41.25-39.82s18.81-39.82,41.25-39.82c19,0,30,7.37,38.72,25.19.66,1.43,0,3-1.65,3H406.34a3.7,3.7,0,0,1-2.75-1.43c-5.17-6.16-10.34-7.26-17.05-7.26-11,0-18.92,8.91-18.92,20.35s7.92,20.35,18.92,20.35c7,0,13.31-2.75,16.06-8.69H389.73a2.7,2.7,0,0,1-2.64-2.75v-10a2.7,2.7,0,0,1,2.64-2.75H423.4a2.72,2.72,0,0,1,2.75,2.75Z"/><path class="cls-1" d="M109.49,20.73a39,39,0,1,0,39,39A39,39,0,0,0,109.49,20.73Zm25.89,40.91a6.45,6.45,0,0,1-7.61,1.1l-.14.28a5.3,5.3,0,0,1-6.09,7.92,3.69,3.69,0,0,0,1.26-.82,4,4,0,0,0-.16-5.67,4.25,4.25,0,0,0-3-1.26h-.07a4,4,0,0,0-1.07.17,3.82,3.82,0,0,0-.77.33,7.76,7.76,0,0,0-4,3.92,3.75,3.75,0,0,0-.48,1.06,3.93,3.93,0,0,0-.12,1.47A4.3,4.3,0,0,0,117.34,74,3.79,3.79,0,0,0,120,72.87a3.67,3.67,0,0,0,.77-1.11A5.31,5.31,0,0,1,113,77.88a1.29,1.29,0,0,1-.39.12,6.4,6.4,0,0,1-3.17,9,6.41,6.41,0,0,1-3-8.64,1.39,1.39,0,0,1-.24-.49,5.31,5.31,0,0,1-6.49-.79,5.28,5.28,0,0,1-1.42-5,3.63,3.63,0,0,0,.64.88,3.79,3.79,0,0,0,2.71,1.11,4.31,4.31,0,0,0,4.23-3.79,3.89,3.89,0,0,0-.22-1.81,3.67,3.67,0,0,0-.37-.72,7.76,7.76,0,0,0-4-3.95,3.62,3.62,0,0,0-.54-.26,3.91,3.91,0,0,0-1.29-.25h-.1a4.25,4.25,0,0,0-3,1.24,4,4,0,0,0-.2,5.67,3.65,3.65,0,0,0,1.07.75,5.29,5.29,0,0,1-5.63-8.2l-.24-.14a6.44,6.44,0,0,1-9.14-2.78,6.43,6.43,0,0,1,5.94-3.95,6.45,6.45,0,0,1,3.26.88l.06-.27a5.3,5.3,0,0,1,4.42-8.24,5.36,5.36,0,0,1,1.32.17,3.67,3.67,0,0,0-1.1.75,4,4,0,0,0,.16,5.67,4.27,4.27,0,0,0,2.58,1.23l.42,0a3.89,3.89,0,0,0,1.42-.26,3.66,3.66,0,0,0,.7-.36,7.74,7.74,0,0,0,3.93-4,3.56,3.56,0,0,0,.28-.63,3.84,3.84,0,0,0,.21-1.2,4.3,4.3,0,0,0-4.26-4.31,3.78,3.78,0,0,0-2.69,1.09,3.69,3.69,0,0,0-.7,1,5.3,5.3,0,0,1,3.11-6.22,5.33,5.33,0,0,1,5.52.9l.09-.11a6.41,6.41,0,0,1,2.83-9.55,6.41,6.41,0,0,1,2.88,9l.23.21a5.31,5.31,0,0,1,7.91,5.93,3.68,3.68,0,0,0-.76-1.07,3.78,3.78,0,0,0-2.67-1.08,4.3,4.3,0,0,0-4.25,4.34,3.89,3.89,0,0,0,.19,1.12,3.78,3.78,0,0,0,.32.71,7.76,7.76,0,0,0,4,4,3.68,3.68,0,0,0,.82.4,3.89,3.89,0,0,0,1.27.21l.45,0a4.27,4.27,0,0,0,2.57-1.25,4,4,0,0,0,.12-5.67,3.65,3.65,0,0,0-1-.68,5.33,5.33,0,0,1,5.1,1.38A5.27,5.27,0,0,1,128,51.37a5.39,5.39,0,0,1-.12,5.13l.18.08a6.44,6.44,0,0,1,8.76,3A6.38,6.38,0,0,1,135.38,61.64Z"/></svg>
