<?xml version="1.0" encoding="utf-8"?>
<!-- Generator: Adobe Illustrator 21.1.0, SVG Export Plug-In . SVG Version: 6.00 Build 0)  -->
<svg version="1.1" id="Layer_1" xmlns="http://www.w3.org/2000/svg" xmlns:xlink="http://www.w3.org/1999/xlink" x="0px" y="0px"
	 viewBox="0 0 500.2 73.4" style="enable-background:new 0 0 500.2 73.4;" xml:space="preserve">
<style type="text/css">
	.st0{fill:#FF7A49;}
</style>
<title>many_icons1</title>
<g>
	<path d="M212.1,47.3h-16c-0.7,0-1.3,0.5-1.3,1.2V53c0,0.7,0.5,1.3,1.2,1.3h16.1c0.7,0,1.3-0.5,1.3-1.2v-4.4
		C213.4,47.9,212.8,47.3,212.1,47.3z M210.7,51.6h-13.2V50h13.2L210.7,51.6z"/>
	<path d="M229.5,34.4c-0.5-2.2-3.6-15.9-3.6-15.9c-0.7-3.3-3.6-5.7-7-5.7h-29.7c-3.4,0-6.3,2.4-7,5.7l-3.6,15.9
		c-4.6,0.5-8.1,4.5-8.2,9.1v14.8c0,0.8,0.6,1.4,1.4,1.4h5.4V64c0,2.7,2.2,4.8,4.9,4.8c2.6,0,4.7-2.1,4.8-4.8v-4.3h34.5V64
		c0,2.7,2.2,4.8,4.8,4.8c2.6,0,4.8-2.2,4.8-4.8v-4.3h5.4c0.7,0,1.3-0.5,1.3-1.2v-15C237.6,38.8,234.1,34.9,229.5,34.4z M184.9,19
		L184.9,19c0.4-2.1,2.2-3.5,4.3-3.5h29.8c2.1,0,3.9,1.5,4.4,3.6l3.4,15.2h-45.5L184.9,19z M184.2,64c0,1.1-1,2-2.1,2
		c-1.2,0-2.1-0.9-2.1-2.1v-4.2h4.2L184.2,64z M228.3,64c0,1.1-1,2-2.1,2c-1.2,0-2.1-0.9-2.1-2.1v-4.2h4.2L228.3,64z M235.1,57h-61.8
		V43h-0.1c0.3-3.4,3.1-6,6.5-6h48.8c3.6,0,6.5,2.9,6.5,6.5L235.1,57z"/>
	<path class="st0" d="M182.3,40.2L182.3,40.2c-3,0-5.4,2.4-5.4,5.4s2.4,5.4,5.4,5.4c3,0,5.4-2.4,5.4-5.4
		C187.7,42.6,185.3,40.2,182.3,40.2L182.3,40.2z M182.4,48.2h-0.2c-1.5,0-2.6-1.2-2.6-2.6s1.2-2.6,2.6-2.6s2.6,1.2,2.6,2.6v0.1
		C184.9,47.1,183.8,48.2,182.4,48.2L182.4,48.2z"/>
	<path class="st0" d="M225.9,40.2L225.9,40.2c-3,0-5.4,2.4-5.4,5.4s2.4,5.4,5.4,5.4c3,0,5.4-2.4,5.4-5.4
		C231.3,42.6,228.9,40.2,225.9,40.2L225.9,40.2z M225.9,48.2L225.9,48.2c-1.5,0-2.7-1.2-2.7-2.6s1.2-2.6,2.6-2.6s2.6,1.2,2.6,2.6
		C228.5,47,227.4,48.2,225.9,48.2L225.9,48.2z"/>
	<path d="M63.9,59.3h-2V27.9h0.7c0.6,0,1.1-0.5,1.1-1.1c0-0.6-0.5-1.1-1.1-1.1H34.8v-9.8h0.3c0.5,0,1-0.1,1.5-0.4
		c1.4-0.8,1.9-2.6,1.1-4c-0.2-0.4-0.6-0.8-1-1l-17-10.3C19.5,0.1,19.4,0,19.2,0c-0.3-0.1-0.6,0-0.8,0.1l-17,10.4C0.5,11,0,12,0,13
		c0,1.6,1.3,2.9,2.9,2.9c0.1,0,0.2,0,0.3,0v9.8H2.9c-0.6,0-1.1,0.5-1.1,1.1c0,0.6,0.5,1.1,1.1,1.1h0.3V32H1.7
		c-0.6,0-1.1,0.5-1.1,1.1v4.3c0,0.6,0.5,1.1,1.1,1.1h1.6v20.8H1.1c-0.6,0-1.1,0.5-1.1,1.1v3.4C0,64.5,0.5,65,1.1,65h62.8
		c0.6,0,1.1-0.5,1.1-1.1v-3.4C65,59.8,64.5,59.3,63.9,59.3L63.9,59.3z M59.6,27.9v31.4H59V27.9H59.6z M32.5,27.9V32h-2.6v-4.1H32.5z
		 M27.7,27.9V32H25v-4.1H27.7z M22.8,27.9V32h-2.6v-4.1H22.8z M17.9,27.9V32h-2.7v-4.1H17.9z M13,27.9V32h-2.7v-4.1H13z M32.6,14.9
		v10.8H5.5V14.9L19,6.8L32.6,14.9z M2.3,13c0-0.2,0.1-0.5,0.3-0.6L19,2.4l16.4,10c0.3,0.2,0.4,0.6,0.1,0.9c-0.2,0.3-0.6,0.4-0.8,0.2
		L19.6,4.5c-0.3-0.2-0.8-0.2-1.1,0L4,13.2l-0.7,0.4c-0.2,0.1-0.5,0.1-0.7,0l-0.1-0.1C2.3,13.4,2.3,13.2,2.3,13z M8.1,27.9V32H5.5
		v-4.1H8.1z M37.5,37.4v-4.3c0-0.6-0.5-1.1-1.1-1.1h-1.6v-4.1h4.6v21.7l-0.2-0.1L39,49.4c-0.6-0.2-1.2,0.2-1.4,0.8
		c-0.1,0.4,0,0.8,0.3,1.1l0.1,0.1c2.6,1.5,5.5,2.2,8.4,2.3c2.8,0,5.5-0.8,7.9-2.3c0.5-0.4,0.5-1.1,0.1-1.6c-0.3-0.4-0.9-0.5-1.3-0.3
		l-0.5,0.3V27.9h4.1v31.4h-22V38.5h1.6C36.9,38.5,37.5,38.1,37.5,37.4L37.5,37.4z M41.7,50.5V27.9h8.7v22.8
		C47.6,51.6,44.5,51.5,41.7,50.5L41.7,50.5z M35.3,34.2v2.1H2.8v-2.1H35.3z M32.5,38.5v20.8H32V38.5H32.5z M29.7,38.5v20.8H8.4V38.5
		H29.7z M6.1,38.5v20.8H5.5V38.5H6.1z M2.3,62.8v-1.2h60.5v1.2H2.3z"/>
	<path class="st0" d="M19,56.6L19,56.6c4.3,0,7.8-3.5,7.8-7.8S23.3,41,19,41s-7.8,3.5-7.8,7.8C11.2,53.1,14.7,56.6,19,56.6z
		 M13.4,48.8c0-3.1,2.5-5.6,5.6-5.5c3.1,0,5.6,2.5,5.6,5.6c0,3.1-2.5,5.5-5.6,5.5C15.9,54.3,13.5,51.8,13.4,48.8L13.4,48.8z"/>
	<path d="M475.6,49.5l2.2,0.6l0.7,2.2c0.1,0.4,0.5,0.8,1,0.8h0.1c0.3,0,0.7-0.2,0.9-0.5l1.3-1.9h2.2c0.4,0,0.8-0.3,1-0.6
		c0.4-0.7,0.2-1.1,0-1.3l-1.4-1.8l0.7-2.2c0.1-0.4,0-0.9-0.3-1.1c-0.3-0.3-0.8-0.4-1.2-0.2l-2.1,0.8l-1.9-1.3
		c-0.5-0.4-1.2-0.3-1.6,0.2c-0.2,0.2-0.3,0.5-0.2,0.8l0.1,2.3l-1.9,1.4c-0.5,0.4-0.6,1.1-0.2,1.6C475.2,49.2,475.4,49.4,475.6,49.5
		L475.6,49.5z M479.4,46l0.5,0.4c0.3,0.2,0.7,0.2,1,0.1l0.5-0.2l-0.2,0.6c-0.1,0.3,0,0.7,0.2,1l0.3,0.4h-0.6c-0.3,0-0.7,0.2-0.9,0.5
		l-0.3,0.5l-0.2-0.6c-0.1-0.4-0.4-0.6-0.8-0.7l-0.5-0.2l0.5-0.4c0.3-0.2,0.5-0.6,0.5-0.9L479.4,46z"/>
	<path class="st0" d="M456.2,62.8c-0.2-0.3-0.6-0.6-1-0.6l-2.3,0.1l-1.4-1.9c-0.4-0.5-1.1-0.6-1.6-0.2c-0.2,0.1-0.3,0.3-0.4,0.5
		l-0.6,2.3l-2.1,0.8c-0.6,0.2-0.9,0.9-0.7,1.5c0.1,0.2,0.2,0.4,0.4,0.5l2,1.3v2.3c0,0.4,0.2,0.8,0.6,1c0.1,0.1,0.3,0.1,0.5,0.1h0.1
		c0.2,0,0.5-0.1,0.6-0.2L452,69l2.2,0.7c0.4,0.1,0.9,0,1.2-0.3c0.3-0.3,0.4-0.7,0.2-1.1l-0.8-2.2l1.3-2
		C456.3,63.7,456.4,63.2,456.2,62.8L456.2,62.8z M452.5,66.2l0.2,0.6l-0.6-0.2h-0.3c-0.2,0-0.5,0.1-0.7,0.2l-0.4,0.4v-0.6
		c0-0.3-0.2-0.7-0.5-0.9l-0.6-0.4l0.6-0.2c0.4-0.1,0.6-0.4,0.7-0.8l0.2-0.5l0.4,0.5c0.2,0.3,0.6,0.5,0.9,0.5h0.6l-0.3,0.5
		C452.4,65.5,452.3,65.8,452.5,66.2z"/>
	<path class="st0" d="M476.3,22l-1,2.1c-0.2,0.4-0.2,0.8,0.1,1.2c0.3,0.3,0.7,0.5,1.1,0.4l2.2-0.5l1.7,1.6c0.2,0.2,0.5,0.3,0.8,0.4
		h0.1c0.1,0,0.3,0,0.4-0.1c0.4-0.1,0.7-0.5,0.7-0.9l0.2-2.3l2-1.1c0.3-0.2,0.5-0.6,0.5-1c0-0.4-0.3-0.8-0.7-1l-2.1-0.9l-0.3-2.3
		c-0.1-0.4-0.4-0.7-0.8-0.9c-0.4-0.1-0.9,0-1.2,0.3l-1.5,1.7l-2.3-0.3c-0.4,0-0.8,0.1-1.1,0.5c-0.2,0.4-0.2,0.8,0,1.2L476.3,22z
		 M478.5,21.3l-0.3-0.6l0.7,0.1c0.4,0,0.7-0.1,1-0.4l0.4-0.4l0.1,0.6c0.1,0.3,0.3,0.6,0.7,0.8l0.6,0.2l-0.5,0.3
		c-0.3,0.2-0.5,0.5-0.6,0.9l-0.1,0.6l-0.5-0.4c-0.2-0.2-0.5-0.3-0.7-0.3c-0.1,0-0.2,0-0.3,0l-0.6,0.1l0.3-0.5
		C478.8,22,478.7,21.7,478.5,21.3L478.5,21.3z"/>
	<circle cx="446.1" cy="52.5" r="1.3"/>
	<circle class="st0" cx="464.2" cy="69.4" r="1.3"/>
	<circle cx="486.5" cy="70.1" r="1.3"/>
	<circle class="st0" cx="479.1" cy="35" r="1.3"/>
	<circle cx="496.9" cy="39.5" r="1.3"/>
	<path d="M494.7,31c1.8,0,3.3-1.5,3.3-3.3c0-1.8-1.5-3.3-3.3-3.3s-3.3,1.5-3.3,3.3C491.3,29.5,492.8,31,494.7,31z M494.7,26.6
		c0.6,0,1.1,0.5,1.1,1.1s-0.5,1.1-1.1,1.1c-0.6,0-1.1-0.5-1.1-1.1C493.6,27.1,494.1,26.6,494.7,26.6L494.7,26.6L494.7,26.6z"/>
	<path class="st0" d="M496.9,48.2c-1.8,0-3.3,1.5-3.3,3.3c0,1.8,1.5,3.3,3.3,3.3c1.8,0,3.3-1.5,3.3-3.3
		C500.2,49.7,498.7,48.2,496.9,48.2z M496.9,52.6c-0.6,0-1.1-0.5-1.1-1.1c0-0.6,0.5-1.1,1.1-1.1c0.6,0,1.1,0.5,1.1,1.1
		c0,0.6-0.4,1-0.9,1.1H496.9z"/>
	<path d="M492.1,60.8c-3.3-1.8-7.5-1.4-12.3,1c-4.2,2.1-7.6,2.4-10.4,1.1c-2.8-1.4-5.1-4.8-6.3-9.4l2.4-0.6c0.5-0.1,0.8-0.5,0.8-0.9
		c0-0.4-0.1-0.8-0.5-1.1l-3.2-2.3c3.8-3.1,11.2-11.1,8-23.9c-2.7-7.8-11.2-12-19-9.4c-7,2.4-11.2,9.4-10,16.7
		c3.2,12.8,14.1,16.3,18.1,17.2l-1.8,3.6c-0.2,0.4-0.1,0.9,0.1,1.2c0.2,0.3,0.5,0.4,0.9,0.4l2-0.4c0.4,1.7,2.2,8.3,7.5,11
		c3.5,1.7,7.6,1.4,12.4-1.1c4.1-2.1,7.5-2.5,10.1-1.1c4.7,2.5,5.5,9.5,5.5,9.6c0.1,0.6,0.5,1,1.1,1h0.2c0.6-0.1,1-0.6,1-1.2V72
		C498.4,69.4,496.9,63.3,492.1,60.8z M443.9,31.4c-1.7-6.8,2.4-13.7,9.2-15.4h0.1c1-0.3,2.1-0.4,3.1-0.4c5.8,0,10.9,4,12.3,9.6
		c2.2,8.1-0.8,16.8-7.6,21.8C452.6,45.8,445.9,39.6,443.9,31.4z M462.8,51.1l-1.6,0.4l0.6-1.1L462.8,51.1z"/>
	<path d="M308.7,45.6c-8.6-6.5-20.5-6.5-29.1,0c-0.7,0.5-0.9,1.4-0.4,2.1c0.5,0.7,1.4,0.9,2.1,0.4l0.2-0.1c7.5-5.6,17.8-5.6,25.4,0
		c0.7,0.5,1.6,0.4,2.1-0.3C309.5,47.1,309.4,46.1,308.7,45.6L308.7,45.6z"/>
	<path d="M326.8,23.7c-19.4-14.5-46-14.5-65.4,0c-0.6,0.5-0.7,1.5-0.2,2.1c0.5,0.6,1.4,0.7,2.1,0.3c18.3-13.7,43.4-13.7,61.7,0
		c0.6,0.5,1.6,0.4,2.1-0.2C327.7,25.2,327.6,24.3,326.8,23.7L326.8,23.7L326.8,23.7z"/>
	<path d="M317.8,35.1c-14-10.5-33.3-10.5-47.3,0c-0.7,0.5-0.9,1.4-0.4,2.1c0.5,0.7,1.4,0.9,2.1,0.4l0.2-0.2
		c12.9-9.6,30.6-9.6,43.5,0c0.6,0.6,1.5,0.6,2.1,0c0.6-0.6,0.6-1.5,0-2.1C318,35.2,317.9,35.1,317.8,35.1z"/>
	<path d="M294.1,53.6L294.1,53.6c-4.2,0-7.6,3.4-7.6,7.6s3.4,7.6,7.6,7.6c4.2,0,7.6-3.4,7.6-7.6S298.3,53.6,294.1,53.6z M294.1,65.8
		c-2.5,0-4.5-2-4.5-4.5s2-4.5,4.5-4.5c2.5,0,4.5,2,4.5,4.5S296.6,65.8,294.1,65.8z"/>
	<path d="M145.8,10.2H85.3c-0.7,0.1-1.3,0.7-1.3,1.4v53.1c0,0.8,0.6,1.4,1.4,1.4h60.3c0.8,0,1.4-0.6,1.4-1.4V11.6
		C147.2,10.8,146.5,10.2,145.8,10.2z M144.3,63.3H86.9V13.1h57.4V63.3z"/>
	<path d="M91.2,59.8h8.6c0.8,0,1.4-0.6,1.4-1.4v-8.6c0-0.8-0.6-1.4-1.4-1.4h-1.6l4.1-18.4l2.5,0.5c-2.7,9.6,2.9,19.5,12.5,22.2
		c9.6,2.7,19.5-2.9,22.2-12.5c2.7-9.6-2.9-19.5-12.5-22.2c-8.5-2.4-17.5,1.8-21.2,9.8l-4.3-0.9c-0.8-0.1-1.5,0.3-1.7,1.1l-4.5,20.4
		H91c-0.7,0.1-1.3,0.7-1.3,1.4v8.6C89.7,59.1,90.4,59.8,91.2,59.8L91.2,59.8z M107.6,31l3.4,0.7c0.7,0.3,1.6-0.1,1.9-0.8
		c0.3-0.7-0.1-1.6-0.8-1.9l-0.2-0.1l-0.2-0.1l-2.9-0.6c3.9-7.5,13.2-10.4,20.7-6.4c7.5,3.9,10.4,13.2,6.4,20.7
		c-3.9,7.5-13.2,10.4-20.7,6.4C108.7,45.6,105.5,38,107.6,31L107.6,31z M92.6,51.2h2l-0.6,2.6c-0.3,0.7,0.1,1.6,0.9,1.8
		c0.7,0.3,1.6-0.1,1.8-0.9c0-0.1,0.1-0.3,0.1-0.4l0.7-3.2h0.8v5.7h-5.7L92.6,51.2z"/>
	<path class="st0" d="M132.8,56.9c0,2.4,1.9,4.3,4.3,4.3s4.3-1.9,4.3-4.3c0-2.4-1.9-4.3-4.3-4.3S132.8,54.5,132.8,56.9z M138.6,56.9
		c0,0.8-0.6,1.4-1.4,1.4s-1.4-0.6-1.4-1.4c0-0.8,0.6-1.4,1.4-1.4C137.9,55.4,138.6,56.1,138.6,56.9L138.6,56.9L138.6,56.9z"/>
	<path d="M122,39.6c2.4,0,4.3-1.9,4.3-4.3S124.4,31,122,31s-4.3,1.9-4.3,4.3S119.7,39.6,122,39.6z M122,33.9c0.8,0,1.4,0.6,1.4,1.4
		c0,0.8-0.6,1.4-1.4,1.4c-0.8,0-1.4-0.6-1.4-1.4C120.6,34.5,121.3,33.9,122,33.9z"/>
	<path class="st0" d="M94,24.6c2.4,0,4.3-1.9,4.3-4.3c0-2.4-1.9-4.3-4.3-4.3s-4.3,1.9-4.3,4.3C89.7,22.6,91.7,24.6,94,24.6z
		 M94,18.8c0.8,0,1.4,0.6,1.4,1.4s-0.6,1.4-1.4,1.4c-0.8,0-1.4-0.6-1.4-1.4C92.6,19.5,93.2,18.8,94,18.8L94,18.8L94,18.8z"/>
	<path d="M406.7,45.9L406.7,45.9c0-3.7-1-7.3-2.7-10.5v-0.1l-0.1-0.1c-2.7-4.8-7.2-8.4-12.5-10v-1.9c0-0.7-0.6-1.3-1.3-1.3h-3.8
		v-9.1c0-0.8-0.6-1.4-1.4-1.4c-0.8,0-1.4,0.6-1.4,1.4V22h-3.2c-0.7,0-1.3,0.5-1.4,1.2v1.9c-5.3,1.5-9.8,5-12.6,9.8l-0.1,0.1
		l-0.1,0.2c-1.8,3.2-2.8,6.8-2.8,10.5v0.1c0,11.9,9.6,21.5,21.5,21.6h0.1C396.9,67.5,406.6,57.9,406.7,45.9L406.7,45.9z M401.6,37.1
		c1.2,2.3,2,4.7,2.1,7.3h-6.8c-0.1-2.5-0.6-4.9-1.4-7.3H401.6z M392.6,37.1c0.9,2.3,1.4,4.8,1.6,7.3h-7.7v-7.3H392.6z M386.5,28.5
		c2,1.7,3.6,3.7,4.9,6h-4.9V28.5z M394.5,34.5c-1.2-2.5-2.8-4.8-4.7-6.7c4,1.1,7.6,3.4,10.1,6.7H394.5z M389.9,64
		c2-2,3.6-4.3,4.7-6.8h5.4C397.5,60.5,393.9,62.9,389.9,64z M391.5,57.2c-1.3,2.4-3,4.5-5,6.2v-6.2L391.5,57.2z M392.8,54.3h-6.3v-7
		h7.7C394.1,49.8,393.6,52.1,392.8,54.3L392.8,54.3z M401.9,54.3h-6.1c0.7-2.3,1.1-4.6,1.2-7h6.8C403.7,49.7,403,52.1,401.9,54.3
		L401.9,54.3z M383.6,63.4c-2.1-1.7-3.9-3.8-5.1-6.3h5.1V63.4z M377.2,54.3c-0.9-2.2-1.4-4.6-1.5-7h7.9v7H377.2z M375.3,57.2
		c1.1,2.6,2.7,4.9,4.7,6.8c-4-1.1-7.5-3.5-10-6.8L375.3,57.2z M368.2,54.3c-1.1-2.2-1.7-4.6-1.9-7h6.6c0.1,2.4,0.6,4.7,1.3,7H368.2z
		 M372.8,44.5h-6.6c0.3-2.5,1-5,2.1-7.3h5.9C373.4,39.6,372.9,42.1,372.8,44.5L372.8,44.5z M375.4,34.4h-5.2
		c2.4-3.2,5.9-5.6,9.8-6.7C378.1,29.7,376.5,32,375.4,34.4L375.4,34.4z M377.2,37.2h6.4v7.3h-7.9C375.8,42,376.3,39.6,377.2,37.2
		L377.2,37.2z M383.6,28.2v6.2h-5.1C379.8,32,381.5,29.9,383.6,28.2L383.6,28.2z"/>
	<path class="st0" d="M404,28.5L404,28.5c0.2,0.3,0.6,0.4,0.9,0.4h0.1c0.4,0,0.7-0.1,1-0.4l4.7-4.6c0.5-0.6,0.4-1.5-0.2-2l0,0
		c-0.5-0.4-1.2-0.4-1.7,0l-4.8,4.7C403.5,27.1,403.5,27.9,404,28.5L404,28.5z"/>
	<path d="M409.8,33.7c-0.7,0.3-1,1.1-0.8,1.9v0.1c0.2,0.5,0.7,0.8,1.3,0.8c0.2,0,0.4,0,0.5-0.1L417,34c0.7-0.3,1.1-1.1,0.8-1.8
		s-1.1-1.1-1.8-0.8L409.8,33.7L409.8,33.7z"/>
	<path class="st0" d="M410.7,64.5l-4.7-4.6c-0.6-0.6-1.4-0.6-2,0c-0.6,0.6-0.6,1.4,0,2l4.7,4.6c0.5,0.6,1.4,0.6,2,0l0,0
		C411.2,65.9,411.2,65,410.7,64.5L410.7,64.5z"/>
	<path class="st0" d="M420,43.7c-0.1-0.7-0.6-1.2-1.3-1.3h-0.1l-6.6,0.1c-0.8,0-1.4,0.6-1.4,1.4c0.1,0.7,0.6,1.3,1.4,1.4l6.6-0.1
		C419.4,45.2,420,44.5,420,43.7L420,43.7L420,43.7z"/>
	<path d="M416.9,54.3L416.9,54.3l-6.2-2.3c-0.7-0.3-1.6,0.1-1.8,0.8c-0.3,0.7,0.1,1.6,0.8,1.8L416,57c0.1,0.1,0.3,0.1,0.4,0.1h0.1
		c0.6,0,1.1-0.4,1.2-0.9c0.1-0.2,0.1-0.4,0.1-0.6c0-0.3-0.1-0.6-0.3-0.8C417.4,54.6,417.2,54.4,416.9,54.3z"/>
	<path d="M359.3,23.7l0.2,0.2l4.7,4.6c0.5,0.6,1.4,0.6,2,0l0,0c0.6-0.5,0.6-1.4,0-2l0,0l-4.7-4.6c-0.5-0.6-1.4-0.7-2-0.2
		S358.8,23,359.3,23.7L359.3,23.7z"/>
	<path class="st0" d="M353.1,34.1L353.1,34.1l6.3,2.4c0.1,0.1,0.3,0.1,0.4,0.1h0.1c0.5,0,1-0.4,1.2-0.9c0.3-0.7-0.1-1.5-0.8-1.8
		l-6.1-2.4c-0.7-0.3-1.5,0.1-1.8,0.8l0,0C352.1,33,352.4,33.8,353.1,34.1L353.1,34.1z"/>
	<path d="M365.9,59.8L365.9,59.8c-0.5-0.4-1.2-0.4-1.7,0l-4.7,4.6c-0.6,0.5-0.6,1.4,0,2l0,0c0.3,0.3,0.6,0.4,1,0.4
		c0.4,0,0.7-0.1,1-0.4l4.7-4.6C366.7,61.2,366.6,60.3,365.9,59.8L365.9,59.8L365.9,59.8z"/>
	<path d="M358.2,45.3L358.2,45.3c0.8,0,1.4-0.6,1.4-1.4v-0.1c0-0.7-0.6-1.3-1.3-1.3h-0.1l-6.6-0.1c-0.8,0-1.4,0.6-1.4,1.4
		c0,0.8,0.6,1.4,1.4,1.4L358.2,45.3z"/>
	<path class="st0" d="M360.3,54.4L360.3,54.4c0.7-0.2,1.1-0.9,0.9-1.6v-0.1c-0.3-0.7-1.1-1.1-1.8-0.9l0,0l-6.2,2.3
		c-0.7,0.3-1.1,1.1-0.9,1.8v0.1c0.2,0.5,0.7,0.8,1.3,0.8c0.2,0,0.4,0,0.5-0.1L360.3,54.4z"/>
</g>
</svg>
