<svg id="Layer_1" data-name="Layer 1" xmlns="http://www.w3.org/2000/svg" viewBox="0 0 500.18 73.36"><title>many_icons1</title><path fill='#fff' d="M212.07,47.32h-16a1.31,1.31,0,0,0-1.31,1.22V53A1.31,1.31,0,0,0,196,54.32h16.11a1.31,1.31,0,0,0,1.31-1.22V48.68A1.36,1.36,0,0,0,212.07,47.32Zm-1.36,4.27H197.52V50H210.7Z"/><path d="M229.45,34.36c-.49-2.24-3.57-15.87-3.57-15.87h0a7.16,7.16,0,0,0-7-5.72H189.16a7.16,7.16,0,0,0-7,5.72h0L178.6,34.36a9.25,9.25,0,0,0-8.17,9.13h0V58.32a1.36,1.36,0,0,0,1.36,1.36h5.36V64A4.82,4.82,0,0,0,182,68.77h0A4.88,4.88,0,0,0,186.8,64h0V59.68h34.46V64a4.82,4.82,0,0,0,4.82,4.82h0A4.88,4.88,0,0,0,230.89,64h0V59.68h5.42a1.31,1.31,0,0,0,1.31-1.22v-15h0A9.19,9.19,0,0,0,229.45,34.36ZM184.88,19.05h0a4.43,4.43,0,0,1,4.34-3.54h29.85a4.5,4.5,0,0,1,4.38,3.55h0l3.42,15.18h-45.5ZM184.16,64A2.09,2.09,0,0,1,182.07,66a2.14,2.14,0,0,1-2.1-2.1V59.68h4.18Zm44.09,0A2.09,2.09,0,0,1,226.16,66a2.14,2.14,0,0,1-2.1-2.1V59.68h4.18Zm6.82-7H173.25V43h-.07A6.53,6.53,0,0,1,179.7,37h48.82a6.55,6.55,0,0,1,6.54,6.55Z"/><path class="cls-1" d="M182.29,40.23h0a5.36,5.36,0,1,0,5.36,5.36h0v0A5.35,5.35,0,0,0,182.29,40.23Zm.12,8h-.15a2.64,2.64,0,1,1,2.64-2.64h0v.07A2.56,2.56,0,0,1,182.4,48.23Z"/><path class="cls-1" d="M225.92,40.23h0a5.36,5.36,0,1,0,5.36,5.36v0A5.35,5.35,0,0,0,225.92,40.23Zm0,8h-.05a2.64,2.64,0,1,1,2.64-2.64h0v0A2.61,2.61,0,0,1,225.94,48.23Z"/><path class="cls-2" d="M34.8,38.51V59.33h22V27.89H52.67V49.65l.51-.29a1.12,1.12,0,0,1,1.18,1.88,14.89,14.89,0,0,1-7.92,2.29h0A17.45,17.45,0,0,1,38,51.28l-.08-.06A1.12,1.12,0,0,1,39,49.38l.22.11.18.1V27.88H34.8V32h1.57a1.12,1.12,0,0,1,1.12,1.12v4.31a1.12,1.12,0,0,1-1.12,1.12Z"/><rect class="cls-2" x="10.37" y="27.89" width="2.64" height="4.07"/><path class="cls-2" d="M2.58,13.59a.66.66,0,0,0,.68,0L4,13.17,18.46,4.54a1.13,1.13,0,0,1,1.13,0l15.17,9.05a.68.68,0,0,0,.7-1.16L19,2.43l-16.43,10a.68.68,0,0,0-.33.58.67.67,0,0,0,.2.52Z"/><rect class="cls-2" x="15.26" y="27.89" width="2.64" height="4.07"/><polygon class="cls-2" points="5.48 14.88 5.46 25.65 32.55 25.65 32.55 14.89 19.01 6.81 5.48 14.88"/><rect class="cls-2" x="59.01" y="27.89" width="0.59" height="31.44"/><rect class="cls-2" x="20.14" y="27.89" width="2.64" height="4.07"/><rect class="cls-2" x="29.91" y="27.89" width="2.63" height="4.07"/><rect class="cls-2" x="25.02" y="27.89" width="2.64" height="4.07"/><polygon class="cls-2" points="8.13 31.96 8.13 27.89 5.48 27.89 5.47 31.96 8.13 31.96"/><rect class="cls-2" x="2.25" y="61.58" width="60.51" height="1.17"/><rect class="cls-2" x="5.53" y="38.51" width="0.59" height="20.82"/><path class="cls-2" d="M29.72,59.33V38.51H8.37V59.33ZM19,41A7.81,7.81,0,0,1,19,56.6h0A7.81,7.81,0,0,1,19,41Z"/><rect class="cls-2" x="31.97" y="38.51" width="0.59" height="20.82"/><rect class="cls-2" x="2.79" y="34.21" width="32.46" height="2.06"/><path class="cls-2" d="M50.39,50.67V27.89H41.67V50.52A13.82,13.82,0,0,0,50.39,50.67Z"/><circle class="cls-2" cx="19.02" cy="48.78" r="5.56"/><path d="M63.88,59.33h-2V27.89h.73a1.12,1.12,0,0,0,0-2.25H34.8V15.89l.31,0a2.92,2.92,0,0,0,1.46-.4,2.9,2.9,0,0,0,.06-5L19.59.16A1.1,1.1,0,0,0,19.24,0a1.13,1.13,0,0,0-.82.13L1.41,10.5A3,3,0,0,0,0,13a2.92,2.92,0,0,0,3.22,2.9v9.76H2.93a1.12,1.12,0,1,0,0,2.25h.29V32H1.66A1.12,1.12,0,0,0,.54,33.11v4.31a1.12,1.12,0,0,0,1.12,1.12H3.28v20.8H1.12A1.12,1.12,0,0,0,0,60.46v3.42A1.12,1.12,0,0,0,1.12,65H63.88A1.12,1.12,0,0,0,65,63.88V60.46A1.12,1.12,0,0,0,63.88,59.33ZM59.61,27.89V59.33H59V27.89Zm-27.06,0V32H29.92V27.89Zm-4.88,0V32H25V27.89Zm-4.88,0V32H20.14V27.89Zm-4.88,0V32H15.26V27.89Zm-4.88,0V32H10.37V27.89Zm19.54-13V25.65H5.46l0-10.77L19,6.81ZM2.25,13a.68.68,0,0,1,.33-.58L19,2.43l16.44,10a.68.68,0,0,1-.7,1.16L19.59,4.53a1.13,1.13,0,0,0-1.13,0L4,13.17l-.71.39a.66.66,0,0,1-.68,0l-.14-.07A.67.67,0,0,1,2.25,13ZM8.13,27.89V32H5.47V27.89Zm29.37,9.5V33.08A1.12,1.12,0,0,0,36.37,32H34.8V27.88h4.63v21.7l-.18-.1L39,49.38a1.12,1.12,0,0,0-1.12,1.84l.08.06a17.45,17.45,0,0,0,8.44,2.25h0a14.89,14.89,0,0,0,7.92-2.29,1.12,1.12,0,0,0-1.18-1.88l-.51.29V27.89h4.13V59.33h-22V38.51h1.57A1.12,1.12,0,0,0,37.5,37.39Zm4.18,13.13V27.89h8.72V50.67A13.82,13.82,0,0,1,41.67,50.52ZM35.25,34.21v2.06H2.79V34.21Zm-2.7,4.3V59.33H32V38.51Zm-2.83,0V59.33H8.37V38.51Zm-23.61,0V59.33H5.53V38.51ZM2.25,62.75V61.58H62.76v1.17Z"/><path class="cls-1" d="M19,56.6h0a7.81,7.81,0,1,0-7.81-7.81A7.82,7.82,0,0,0,19,56.6Zm-5.56-7.82A5.56,5.56,0,1,1,19,54.35,5.58,5.58,0,0,1,13.45,48.78Z"/><path d="M475.56,49.51l2.22.62.69,2.22a1.15,1.15,0,0,0,1,.8h.11a1.32,1.32,0,0,0,.88-.46l1.32-1.88H484a1.12,1.12,0,0,0,1-.64c.41-.72.16-1.14,0-1.34L483.63,47l.69-2.22a1.07,1.07,0,0,0-.32-1.14,1,1,0,0,0-1.15-.24l-2.15.76-1.87-1.32a1.11,1.11,0,0,0-1.81.92l.07,2.29-1.87,1.39a1.15,1.15,0,0,0,.35,2ZM479.4,46l.5.37a1.13,1.13,0,0,0,1,.12l.54-.19-.2.57a1.13,1.13,0,0,0,.22,1l.35.44h-.62a1.32,1.32,0,0,0-.88.47l-.34.5-.2-.56A1,1,0,0,0,479,48l-.55-.16.5-.37a1.07,1.07,0,0,0,.47-.94Z"/><path class="cls-1" d="M456.22,62.83a1.18,1.18,0,0,0-1-.56h0l-2.29.07-1.39-1.87a1.15,1.15,0,0,0-2,.35l-.63,2.3-2.13.76a1.15,1.15,0,0,0-.33,2l1.95,1.32v2.3a1.1,1.1,0,0,0,.62,1,.83.83,0,0,0,.46.14h.09a1.48,1.48,0,0,0,.65-.23L452,69l2.22.69a1.06,1.06,0,0,0,1.15-.33,1.13,1.13,0,0,0,.23-1.13L454.81,66,456.15,64a1.42,1.42,0,0,0,.1-1.13Zm-3.77,3.34.21.59-.63-.18h-.32a1.46,1.46,0,0,0-.65.23l-.45.35v-.62a1.32,1.32,0,0,0-.46-.88l-.6-.41.57-.2a1,1,0,0,0,.7-.78l.16-.55.37.5a1.06,1.06,0,0,0,.94.47l.6,0-.34.51A1.13,1.13,0,0,0,452.45,66.17Z"/><path class="cls-1" d="M476.29,22l-1,2.06a1.05,1.05,0,0,0,.12,1.18,1.26,1.26,0,0,0,1.12.43l2.22-.49,1.65,1.58a1.05,1.05,0,0,0,.77.35h.06a1,1,0,0,0,.43-.1,1,1,0,0,0,.68-.92l.21-2.29,2-1.12a1.19,1.19,0,0,0,.55-1,1.26,1.26,0,0,0-.68-1l-2.08-.9L482,17.45a1.24,1.24,0,0,0-.78-.87,1.06,1.06,0,0,0-1.16.34l-1.53,1.74-2.3-.28a1.26,1.26,0,0,0-1.11.47,1.06,1.06,0,0,0,0,1.16Zm2.26-.66-.31-.56.66.07a1.48,1.48,0,0,0,1-.36l.38-.44.1.6a1.17,1.17,0,0,0,.67.78l.56.23-.53.3a1.12,1.12,0,0,0-.56.89l-.07.62-.45-.41a1.14,1.14,0,0,0-.73-.27,1.07,1.07,0,0,0-.28,0l-.59.13.27-.54A1.24,1.24,0,0,0,478.55,21.35Z"/><circle cx="446.09" cy="52.47" r="1.28"/><circle class="cls-1" cx="464.2" cy="69.44" r="1.28"/><circle cx="486.53" cy="70.12" r="1.28"/><circle class="cls-1" cx="479.06" cy="34.96" r="1.28"/><circle cx="496.86" cy="39.49" r="1.28"/><path d="M494.67,31a3.32,3.32,0,1,0-3.32-3.32A3.32,3.32,0,0,0,494.67,31Zm0-4.38a1.06,1.06,0,1,1-1.06,1.06A1.06,1.06,0,0,1,494.67,26.59Z"/><path class="cls-1" d="M496.86,48.24a3.32,3.32,0,1,0,3.32,3.32A3.32,3.32,0,0,0,496.86,48.24Zm0,4.38a1.06,1.06,0,1,1,1.06-1.06A1,1,0,0,1,496.86,52.62Z"/><path d="M492.14,60.81c-3.25-1.78-7.49-1.42-12.27,1-4.17,2.08-7.56,2.43-10.38,1.05s-5.14-4.77-6.34-9.42l2.39-.58a1,1,0,0,0,.84-.94,1.27,1.27,0,0,0-.46-1.1l-3.21-2.28c3.79-3.12,11.22-11.11,8-23.91a15,15,0,0,0-29,7.28h0c3.24,12.81,14.14,16.35,18.14,17.23L458,52.69a1.22,1.22,0,0,0,.14,1.24,1.31,1.31,0,0,0,.88.43l2-.44c.38,1.71,2.19,8.34,7.52,11,3.5,1.71,7.56,1.37,12.41-1.06,4.07-2.11,7.48-2.46,10.14-1.06,4.67,2.48,5.53,9.51,5.54,9.61a1.18,1.18,0,0,0,1.11,1h.18a1.26,1.26,0,0,0,1-1.18l0-.23C498.44,69.43,496.93,63.3,492.14,60.81ZM443.89,31.4A12.67,12.67,0,0,1,453.05,16l.07,0a12.76,12.76,0,0,1,3.11-.39,12.69,12.69,0,0,1,12.28,9.62,20.67,20.67,0,0,1-7.58,21.84A20.86,20.86,0,0,1,443.89,31.4Zm18.9,19.68-1.59.38.57-1.14Z"/><path d="M308.71,45.63a24.3,24.3,0,0,0-29.13,0A1.52,1.52,0,1,0,281.47,48a21.18,21.18,0,0,1,25.35,0,1.52,1.52,0,0,0,1.89-2.39Z"/><path d="M326.85,23.68a54.48,54.48,0,0,0-65.41,0,1.52,1.52,0,0,0,1.85,2.41,51.46,51.46,0,0,1,61.72,0,1.52,1.52,0,1,0,1.85-2.41Z"/><path d="M317.79,35.06a39.34,39.34,0,0,0-47.29,0,1.51,1.51,0,1,0,1.89,2.34,36.42,36.42,0,0,1,43.51,0,1.51,1.51,0,1,0,2.16-2.12A1.54,1.54,0,0,0,317.79,35.06Z"/><path d="M294.14,53.64h0a7.57,7.57,0,1,0,7.57,7.57A7.57,7.57,0,0,0,294.14,53.64Zm0,12.11a4.54,4.54,0,1,1,4.54-4.54A4.54,4.54,0,0,1,294.14,65.75Z"/><path d="M145.75,10.21H85.3A1.44,1.44,0,0,0,84,11.64V64.77a1.44,1.44,0,0,0,1.44,1.44h60.31a1.44,1.44,0,0,0,1.44-1.44V11.64A1.44,1.44,0,0,0,145.75,10.21Zm-1.44,53.13H86.87V13.08h57.44Z"/><path d="M91.18,59.75H99.8a1.44,1.44,0,0,0,1.44-1.44V49.7a1.44,1.44,0,0,0-1.44-1.44H98.22l4.09-18.42,2.51.54a18,18,0,1,0,1-2.71l-4.31-.92a1.44,1.44,0,0,0-1.68,1.1L95.31,48.26H91a1.44,1.44,0,0,0-1.3,1.44v8.62A1.44,1.44,0,0,0,91.18,59.75ZM107.63,31l3.37.72a1.44,1.44,0,1,0,.79-2.76l-.21-.06-2.87-.6a15.31,15.31,0,1,1-1.1,2.69Zm-15,20.15h2l-.56,2.56a1.44,1.44,0,1,0,2.79.6l.72-3.17h.76v5.74H92.62Z"/><path class="cls-1" d="M132.82,56.88a4.31,4.31,0,1,0,4.31-4.31A4.31,4.31,0,0,0,132.82,56.88Zm5.74,0a1.44,1.44,0,1,1-1.44-1.44A1.44,1.44,0,0,1,138.57,56.88Z"/><path d="M122.05,39.64a4.31,4.31,0,1,0-4.31-4.31A4.31,4.31,0,0,0,122.05,39.64Zm0-5.74a1.44,1.44,0,1,1-1.44,1.44A1.44,1.44,0,0,1,122.05,33.9Z"/><path class="cls-1" d="M94.05,24.57a4.31,4.31,0,1,0-4.31-4.31A4.31,4.31,0,0,0,94.05,24.57Zm0-5.74a1.44,1.44,0,1,1-1.44,1.44A1.44,1.44,0,0,1,94.05,18.82Z"/><path class="cls-2" d="M391.47,57.19h-5v6.22A21.34,21.34,0,0,0,391.47,57.19Z"/><path class="cls-2" d="M383.63,47.26H375.7a21.91,21.91,0,0,0,1.51,7h6.41Z"/><path class="cls-2" d="M386.44,47.36v7h6.31a24.09,24.09,0,0,0,1.43-7Z"/><path class="cls-2" d="M383.63,63.44V57.19h-5.13A19.88,19.88,0,0,0,383.63,63.44Z"/><path class="cls-2" d="M397,47.26a31.22,31.22,0,0,1-1.22,7h6.12a18.15,18.15,0,0,0,1.94-7Z"/><path class="cls-2" d="M386.44,28.48v6h4.85A19.91,19.91,0,0,0,386.44,28.48Z"/><path class="cls-2" d="M396.89,44.46h6.84a17.71,17.71,0,0,0-2.12-7.3h-6.1A27.27,27.27,0,0,1,396.89,44.46Z"/><path class="cls-2" d="M380,64a22.41,22.41,0,0,1-4.76-6.82H370A19,19,0,0,0,380,64Z"/><path class="cls-2" d="M394.6,57.19A24.08,24.08,0,0,1,389.87,64,19,19,0,0,0,400,57.19Z"/><path class="cls-2" d="M389.8,27.72a24.33,24.33,0,0,1,4.7,6.71h5.4A19,19,0,0,0,389.8,27.72Z"/><path class="cls-2" d="M386.44,44.46h7.73a26.49,26.49,0,0,0-1.6-7.3h-6.13Z"/><path class="cls-2" d="M383.63,34.34V28.18a20.31,20.31,0,0,0-5.12,6.16Z"/><path class="cls-2" d="M372.89,47.26h-6.63a19.59,19.59,0,0,0,1.94,7h6A27.74,27.74,0,0,1,372.89,47.26Z"/><path class="cls-2" d="M383.63,44.55v-7.3h-6.41a23.91,23.91,0,0,0-1.52,7.3Z"/><path class="cls-2" d="M368.29,37.24a21,21,0,0,0-2.11,7.3h6.62a26.75,26.75,0,0,1,1.39-7.3Z"/><path class="cls-2" d="M370.15,34.43h5.22a24.09,24.09,0,0,1,4.56-6.65A18.55,18.55,0,0,0,370.15,34.43Z"/><path d="M406.66,45.9v0h0a22.21,22.21,0,0,0-2.72-10.51v-.1l-.06-.11A21.42,21.42,0,0,0,391.4,25.2V23.33A1.35,1.35,0,0,0,390.14,22h-3.8V12.9a1.4,1.4,0,1,0-2.81,0V22h-3.15A1.35,1.35,0,0,0,379,23.24v1.87A21.74,21.74,0,0,0,366.4,34.9a1.34,1.34,0,0,0-.13.15.88.88,0,0,0-.11.23,21.21,21.21,0,0,0-2.76,10.46v.14h0a21.71,21.71,0,0,0,21.53,21.63H385A21.61,21.61,0,0,0,406.66,45.9Zm-5.06-8.75a17.71,17.71,0,0,1,2.12,7.3h-6.84a27.27,27.27,0,0,0-1.39-7.3Zm-9,0a26.49,26.49,0,0,1,1.6,7.3h-7.73v-7.3Zm-6.13-8.67a19.91,19.91,0,0,1,4.85,6h-4.85Zm8.06,6a24.33,24.33,0,0,0-4.7-6.71,19,19,0,0,1,10.1,6.71ZM389.87,64a24.08,24.08,0,0,0,4.73-6.84H400A19,19,0,0,1,389.87,64Zm1.6-6.84a21.34,21.34,0,0,1-5,6.22V57.19Zm1.28-2.81h-6.31v-7h7.74A24.09,24.09,0,0,1,392.75,54.38Zm9.13-.09h-6.12a31.22,31.22,0,0,0,1.22-7h6.84A18.15,18.15,0,0,1,401.88,54.29Zm-18.25,9.16a19.88,19.88,0,0,1-5.13-6.25h5.13Zm-6.41-9.16a21.91,21.91,0,0,1-1.51-7h7.93v7Zm-1.94,2.9A22.41,22.41,0,0,0,380,64,19,19,0,0,1,370,57.19Zm-7.08-2.9a19.59,19.59,0,0,1-1.94-7h6.63a27.74,27.74,0,0,0,1.3,7Zm4.6-9.74h-6.62a21,21,0,0,1,2.11-7.3h5.89A26.75,26.75,0,0,0,372.8,44.55Zm2.58-10.11h-5.22a18.55,18.55,0,0,1,9.78-6.65A24.09,24.09,0,0,0,375.37,34.43Zm1.85,2.81h6.41v7.3H375.7A23.91,23.91,0,0,1,377.22,37.24Zm6.41-9.06v6.16H378.5A20.31,20.31,0,0,1,383.63,28.18Z"/><path class="cls-1" d="M404,28.45l0,0h0a1.2,1.2,0,0,0,.91.43h.1a1.32,1.32,0,0,0,1-.42h0l4.71-4.61,0,0a1.4,1.4,0,0,0-.28-2h0a1.4,1.4,0,0,0-1.69,0l0,0L404,26.52h0a1.39,1.39,0,0,0,0,1.92Z"/><path d="M409.82,33.74a1.59,1.59,0,0,0-.8,1.86v.06a1.4,1.4,0,0,0,1.26.84h0a1.17,1.17,0,0,0,.52-.13h0L417,34h0a1.42,1.42,0,1,0-1-2.66h0l-6.21,2.35Z"/><path class="cls-1" d="M410.65,64.45l-4.71-4.61,0,0a1.4,1.4,0,0,0-2,2l0,0,4.71,4.61a1.41,1.41,0,0,0,2,0h0a1.4,1.4,0,0,0,0-2Z"/><polygon points="403.95 60.09 403.95 60.09 403.95 60.09 403.95 60.09"/><path class="cls-1" d="M420,43.74a1.56,1.56,0,0,0-1.34-1.34h-.07l-6.56.09h0a1.4,1.4,0,0,0-1.4,1.4v0a1.48,1.48,0,0,0,1.37,1.37h0l6.58-.09h0a1.4,1.4,0,0,0,1.4-1.4v-.06Z"/><path d="M416.94,54.32h0L410.76,52h0a1.42,1.42,0,1,0-1,2.66h0L416,57h0a1.1,1.1,0,0,0,.39.09h.11a1.28,1.28,0,0,0,1.22-.89h0a2.13,2.13,0,0,0,.09-.58,1.35,1.35,0,0,0-.25-.81A1.39,1.39,0,0,0,416.94,54.32Z"/><path d="M359.3,23.69l.21.21h0l4.68,4.59a1.41,1.41,0,0,0,2,0h0a1.4,1.4,0,0,0,0-2h0l-4.69-4.59h0a1.4,1.4,0,0,0-2.2,1.74Z"/><path class="cls-1" d="M353.09,34.11h0l6.26,2.37h0a1.11,1.11,0,0,0,.39.09h.11a1.28,1.28,0,0,0,1.21-.87h0a1.39,1.39,0,0,0-.81-1.79h0l-6.08-2.43h0a1.4,1.4,0,0,0-1.81.81h0v0h0a1.4,1.4,0,0,0,.71,1.8Z"/><path d="M365.93,59.81h0a1.4,1.4,0,0,0-1.69,0l0,0,0,0-4.69,4.59h0a1.4,1.4,0,0,0,0,2h0a1.48,1.48,0,0,0,1,.41h0a1.32,1.32,0,0,0,1-.42h0l4.71-4.61,0,0a1.41,1.41,0,0,0-.28-2Z"/><path d="M358.15,45.3h0a1.4,1.4,0,0,0,1.4-1.37h0v0h0v-.06a1.35,1.35,0,0,0-1.26-1.34h-.14l-6.55-.09h0a1.4,1.4,0,0,0,0,2.81h0Z"/><path class="cls-1" d="M360.29,54.44h0a1.3,1.3,0,0,0,.88-1.59h0l0-.1h0a1.4,1.4,0,0,0-1.79-.86h0l-6.18,2.34h0a1.4,1.4,0,0,0-.85,1.78h0v.06a1.41,1.41,0,0,0,1.26.84h0a1.18,1.18,0,0,0,.52-.13h0Z"/></svg>
