<svg id="Layer_1" data-name="Layer 1" xmlns="http://www.w3.org/2000/svg" viewBox="0 0 24 24"><defs><style>.cls-1{fill:#ff7a49;}.cls-2{fill:none;}</style></defs><title>showmen_icon</title><path class="cls-1" d="M9,11.75A1.25,1.25,0,1,0,10.25,13,1.25,1.25,0,0,0,9,11.75Zm6,0A1.25,1.25,0,1,0,16.25,13,1.25,1.25,0,0,0,15,11.75ZM12,2A10,10,0,1,0,22,12,10,10,0,0,0,12,2Zm0,18a8,8,0,0,1-8-8,8.11,8.11,0,0,1,.05-.86A10.06,10.06,0,0,0,9.26,5.77,10,10,0,0,0,17.42,10a9.76,9.76,0,0,0,2.25-.26A8,8,0,0,1,12,20Z"/><path class="cls-2" d="M0,0H24V24H0Z"/></svg>
