<svg id="Layer_1" data-name="Layer 1" xmlns="http://www.w3.org/2000/svg" viewBox="0 0 241.91 30.25"><defs><style>.cls-1{fill:#fff;}</style></defs><title>toimaster_raw</title><path class="cls-1" d="M40.91,0a15,15,0,1,0,15,15A15,15,0,0,0,40.91,0Zm10,15.78A2.49,2.49,0,0,1,48,16.2l-.06.11a2,2,0,0,1-2.35,3.05A1.42,1.42,0,0,0,46,19,1.54,1.54,0,0,0,46,16.86a1.64,1.64,0,0,0-1.15-.48h0a1.53,1.53,0,0,0-.41.06,1.47,1.47,0,0,0-.3.13,3,3,0,0,0-1.55,1.51,1.44,1.44,0,0,0-.19.41,1.52,1.52,0,0,0,0,.57,1.66,1.66,0,0,0,1.63,1.47,1.46,1.46,0,0,0,1-.42,1.42,1.42,0,0,0,.3-.43,2,2,0,0,1-3,2.36l-.15,0a2.47,2.47,0,0,1-1.22,3.47,2.47,2.47,0,0,1-1.18-3.33.54.54,0,0,1-.09-.19,2,2,0,0,1-2.5-.31,2,2,0,0,1-.55-1.91,1.4,1.4,0,0,0,.25.34,1.46,1.46,0,0,0,1,.43,1.66,1.66,0,0,0,1.63-1.46,1.5,1.5,0,0,0-.09-.7,1.41,1.41,0,0,0-.14-.28,3,3,0,0,0-1.54-1.52l-.21-.1a1.51,1.51,0,0,0-.5-.1h0a1.64,1.64,0,0,0-1.15.48,1.54,1.54,0,0,0-.08,2.18,1.41,1.41,0,0,0,.41.29A2,2,0,0,1,34,16.21l-.09-.06a2.48,2.48,0,0,1-3.52-1.07,2.48,2.48,0,0,1,2.29-1.52,2.49,2.49,0,0,1,1.26.34l0-.11a2,2,0,0,1,1.7-3.18,2.07,2.07,0,0,1,.51.06,1.41,1.41,0,0,0-.42.29,1.54,1.54,0,0,0,.06,2.19,1.64,1.64,0,0,0,1,.48H37a1.5,1.5,0,0,0,.55-.1,1.41,1.41,0,0,0,.27-.14,3,3,0,0,0,1.52-1.54,1.37,1.37,0,0,0,.11-.24,1.48,1.48,0,0,0,.08-.46,1.66,1.66,0,0,0-1.64-1.66,1.46,1.46,0,0,0-1,.42,1.42,1.42,0,0,0-.27.37,2,2,0,0,1,1.2-2.4,2.06,2.06,0,0,1,2.13.35l0,0A2.47,2.47,0,0,1,41,4.51,2.47,2.47,0,0,1,42.11,8L42.2,8a2,2,0,0,1,3.05,2.29A1.42,1.42,0,0,0,45,9.92a1.46,1.46,0,0,0-1-.42,1.66,1.66,0,0,0-1.64,1.67,1.5,1.5,0,0,0,.07.43,1.46,1.46,0,0,0,.12.27A3,3,0,0,0,44,13.42a1.42,1.42,0,0,0,.32.15,1.5,1.5,0,0,0,.49.08H45a1.65,1.65,0,0,0,1-.48A1.54,1.54,0,0,0,46,11a1.41,1.41,0,0,0-.37-.26,2.05,2.05,0,0,1,2,.53,2,2,0,0,1,.41.57,2.08,2.08,0,0,1,0,2l.07,0A2.48,2.48,0,0,1,51.43,15,2.46,2.46,0,0,1,50.89,15.78Z"/><path class="cls-1" d="M24.73,2.22v5a1,1,0,0,1-1,1H16.57V28.74a1,1,0,0,1-1,1H9.18a1,1,0,0,1-1-1V8.21H1a1,1,0,0,1-1-1v-5a1,1,0,0,1,1-1H23.71A1,1,0,0,1,24.73,2.22Z"/><path class="cls-1" d="M68.26,2.22V28.74a1,1,0,0,1-1,1H60.88a1,1,0,0,1-1-1V2.22a1,1,0,0,1,1-1h6.37A1,1,0,0,1,68.26,2.22Z"/><path class="cls-1" d="M104.78,2.22V28.74a1,1,0,0,1-1,1H97.35a1,1,0,0,1-1-1V16.13s-4,5.83-4.69,6.81C90.87,24.13,90.42,24,90.09,24H87.44c-.33,0-.78.12-1.55-1.06-.69-1-4.73-6.81-4.73-6.81V28.74a1,1,0,0,1-1,1H73.77a1,1,0,0,1-1-1V2.22a1,1,0,0,1,1-1h4.81a1.7,1.7,0,0,1,1.51.86L88.75,14,97.44,2.05a1.7,1.7,0,0,1,1.51-.86h4.81A1.07,1.07,0,0,1,104.78,2.22Z"/><path class="cls-1" d="M136.65,29.76H130c-1.22,0-1.39-.41-1.84-1.47-.08-.2-.37-1-.78-2.33h-8.81c-.41,1.31-.69,2.12-.78,2.33-.41,1.06-.61,1.47-1.84,1.47h-6.61c-.69,0-1.1-.53-.73-1.43S118,2.91,118.29,2.22s.53-1,1.26-1h6.85c.73,0,1,.33,1.31,1s9.3,25.21,9.67,26.11S137.34,29.76,136.65,29.76ZM125.14,18.94c-.69-2.2-1.43-4.53-2.16-6.77-.69,2.24-1.43,4.57-2.16,6.77Z"/><path class="cls-1" d="M159.66,24c-.86,3.35-4,6.2-10.81,6.2A14.48,14.48,0,0,1,140.77,28c-.37-.25-.49-.57-.33-1.18s1.14-4.33,1.22-4.61a.71.71,0,0,1,.94-.37,17,17,0,0,0,4.9,1.67c1.92.08,3.43-.45,3.47-1.63s-1.14-1.75-4.45-4c-3.47-2.37-6.53-5.63-5.92-10.53.73-6.08,6.85-6.57,10.12-6.57a23.37,23.37,0,0,1,7.14,1.22,1,1,0,0,1,.82,1.18c-.08.49-.82,4.24-.9,4.73s-.41.9-1.18.61a14.52,14.52,0,0,0-5.06-1.1c-.77,0-1.67.33-1.88.86-.53,1.39.94,2.49,5.39,5.67S160.56,20.53,159.66,24Z"/><path class="cls-1" d="M188,2.22v5a1,1,0,0,1-1,1h-7.14V28.74a1,1,0,0,1-1,1h-6.36a1,1,0,0,1-1-1V8.21h-7.14a1,1,0,0,1-1-1v-5a1,1,0,0,1,1-1H187A1,1,0,0,1,188,2.22Z"/><path class="cls-1" d="M212.87,23.76v5a1,1,0,0,1-1,1H193.08a1,1,0,0,1-1-1V2.22a1,1,0,0,1,1-1h18.65a1,1,0,0,1,1,1v5a1,1,0,0,1-1,1H200.46V12h9.14a1,1,0,0,1,1,1v5a1,1,0,0,1-1,1h-9.14v3.75h11.38A1,1,0,0,1,212.87,23.76Z"/><path class="cls-1" d="M241,29.76h-7.22a1.87,1.87,0,0,1-1.55-1C232,28.45,229.8,24.37,228,21h-2.2v7.71a1,1,0,0,1-1,1h-6.37a1,1,0,0,1-1-1V2.22a1,1,0,0,1,1-1h11.51c6.65,0,10.61,3.92,10.61,10,0,3.55-1.39,6.49-4.08,8.16,2,3.3,5,8.57,5.3,9.06C242.08,29.06,242,29.76,241,29.76ZM229.64,8h-3.88v6.28h4a3.19,3.19,0,0,0,3.22-3.1A3.24,3.24,0,0,0,229.64,8Z"/></svg>
