<svg id="Layer_1" data-name="Layer 1" xmlns="http://www.w3.org/2000/svg" viewBox="0 0 199.38 125.83"><defs><style>.cls-1{fill:#fff;}</style></defs><title>toimaster_small</title><path class="cls-1" d="M97.08,15.85A34.81,34.81,0,1,0,131.9,50.67,34.81,34.81,0,0,0,97.08,15.85ZM120.21,52.4a5.76,5.76,0,0,1-6.8,1l-.13.25a4.74,4.74,0,0,1-5.44,7.07A3.29,3.29,0,0,0,109,60a3.57,3.57,0,0,0-.15-5.06,3.79,3.79,0,0,0-2.67-1.12h-.07a3.55,3.55,0,0,0-1,.15,3.41,3.41,0,0,0-.69.3,6.93,6.93,0,0,0-3.58,3.5,3.35,3.35,0,0,0-.43.94,3.51,3.51,0,0,0-.11,1.31,3.84,3.84,0,0,0,3.78,3.41,3.38,3.38,0,0,0,2.41-1,3.28,3.28,0,0,0,.68-1,4.74,4.74,0,0,1-7,5.47,1.15,1.15,0,0,1-.35.11A5.72,5.72,0,0,1,97,75a5.72,5.72,0,0,1-2.72-7.72,1.24,1.24,0,0,1-.21-.44,4.74,4.74,0,0,1-5.79-.71A4.71,4.71,0,0,1,87,61.75a3.24,3.24,0,0,0,.57.78,3.38,3.38,0,0,0,2.42,1,3.85,3.85,0,0,0,3.78-3.39,3.47,3.47,0,0,0-.2-1.62,3.27,3.27,0,0,0-.33-.64,6.93,6.93,0,0,0-3.56-3.53,3.24,3.24,0,0,0-.49-.23,3.49,3.49,0,0,0-1.15-.22H88A3.8,3.8,0,0,0,85.34,55a3.57,3.57,0,0,0-.18,5.06,3.26,3.26,0,0,0,1,.67,4.73,4.73,0,0,1-5-7.32l-.21-.13a5.75,5.75,0,0,1-8.16-2.49A5.74,5.74,0,0,1,78,47.26a5.76,5.76,0,0,1,2.91.79L81,47.8a4.73,4.73,0,0,1,3.94-7.36,4.79,4.79,0,0,1,1.18.15,3.28,3.28,0,0,0-1,.67,3.58,3.58,0,0,0,.15,5.06,3.81,3.81,0,0,0,2.3,1.1l.37,0a3.47,3.47,0,0,0,1.26-.24,3.27,3.27,0,0,0,.63-.32,6.92,6.92,0,0,0,3.51-3.57,3.18,3.18,0,0,0,.25-.56,3.43,3.43,0,0,0,.19-1.08A3.84,3.84,0,0,0,90,37.83a3.38,3.38,0,0,0-2.4,1,3.3,3.3,0,0,0-.62.87,4.73,4.73,0,0,1,2.78-5.56,4.76,4.76,0,0,1,4.93.8l.08-.09a5.72,5.72,0,0,1,2.53-8.53,5.72,5.72,0,0,1,2.57,8l.21.19a4.74,4.74,0,0,1,7.07,5.3,3.28,3.28,0,0,0-.68-1,3.38,3.38,0,0,0-2.39-1,3.84,3.84,0,0,0-3.8,3.88,3.47,3.47,0,0,0,.17,1,3.38,3.38,0,0,0,.28.64,6.93,6.93,0,0,0,3.54,3.55,3.29,3.29,0,0,0,.73.36,3.47,3.47,0,0,0,1.14.19l.4,0a3.82,3.82,0,0,0,2.29-1.12,3.57,3.57,0,0,0,.11-5.06,3.26,3.26,0,0,0-.86-.61,4.76,4.76,0,0,1,4.56,1.23,4.71,4.71,0,0,1,.94,1.33,4.81,4.81,0,0,1-.1,4.58l.16.07a5.75,5.75,0,0,1,7.83,2.67A5.7,5.7,0,0,1,120.21,52.4Z"/><path class="cls-1" d="M57.28,21V32.51a2.34,2.34,0,0,1-2.36,2.36H38.37V82.42A2.34,2.34,0,0,1,36,84.78H21.27a2.34,2.34,0,0,1-2.36-2.36V34.88H2.36A2.34,2.34,0,0,1,0,32.51V21a2.4,2.4,0,0,1,2.36-2.36H54.91A2.4,2.4,0,0,1,57.28,21Z"/><path class="cls-1" d="M199.38,21V82.42A2.34,2.34,0,0,1,197,84.78H182.18a2.32,2.32,0,0,1-2.27-2.36V51.13s-18.43,27.6-20.42,30.24-3,3.4-5.39,3.4H143.33A2.34,2.34,0,0,1,141,82.42V21a2.34,2.34,0,0,1,2.36-2.36h14.74A2.34,2.34,0,0,1,160.44,21V52.83L181.71,21c1-1.51,2-2.36,4.82-2.36H197A2.34,2.34,0,0,1,199.38,21ZM187,2.36v9.17a2.34,2.34,0,0,1-2.36,2.36H158.17a2.4,2.4,0,0,1-2.36-2.36V2.36A2.4,2.4,0,0,1,158.17,0h26.46A2.34,2.34,0,0,1,187,2.36Z"/><path class="cls-1" d="M50.73,96.81v27.5a1.08,1.08,0,0,1-1.06,1.06H43A1.08,1.08,0,0,1,42,124.31V111.24s-4.19,6.05-4.87,7.07c-.8,1.23-1.27,1.1-1.61,1.1H32.75c-.34,0-.8.13-1.61-1.1-.72-1-4.91-7.07-4.91-7.07v13.07a1,1,0,0,1-1.06,1.06h-6.6a1,1,0,0,1-1.06-1.06V96.81a1.07,1.07,0,0,1,1.06-1.06h5a1.76,1.76,0,0,1,1.57.89l9,12.35,9-12.35a1.77,1.77,0,0,1,1.57-.89h5A1.1,1.1,0,0,1,50.73,96.81Z"/><path class="cls-1" d="M82.93,125.37H76c-1.27,0-1.44-.42-1.9-1.52-.08-.21-.38-1.06-.8-2.41H64.18c-.42,1.35-.72,2.2-.8,2.41-.42,1.1-.63,1.52-1.9,1.52H54.62c-.72,0-1.14-.55-.76-1.48s9.69-26.36,10-27.08.55-1.06,1.31-1.06h7.11c.76,0,1,.34,1.35,1.06s9.65,26.15,10,27.08S83.65,125.37,82.93,125.37ZM71,114.16c-.72-2.28-1.48-4.7-2.24-7-.72,2.33-1.48,4.74-2.24,7Z"/><path class="cls-1" d="M107.38,113.4H114c.59,0,.8.59.68,1.14-1.65,6.81-7.53,11.3-14.94,11.3-8.63,0-15.87-6.85-15.87-15.32s7.23-15.27,15.87-15.27c7.32,0,13.2,4.4,14.89,11.13.13.55,0,1.1-.63,1.1H107.3a.89.89,0,0,1-.89-.55c-1.18-2.88-3.47-4.23-6.69-4.23-4.23,0-7.28,3.43-7.28,7.83s3,7.83,7.28,7.83c3.26,0,5.58-1.4,6.73-4.36A.9.9,0,0,1,107.38,113.4Z"/><path class="cls-1" d="M143.31,96.81V102a1,1,0,0,1-1.06,1.06h-7.4v21.28a1,1,0,0,1-1.06,1.06h-6.6a1,1,0,0,1-1.06-1.06V103h-7.4a1,1,0,0,1-1.06-1.06V96.81a1.07,1.07,0,0,1,1.06-1.06h23.52A1.07,1.07,0,0,1,143.31,96.81Z"/><path class="cls-1" d="M169.12,119.15v5.16a1,1,0,0,1-1.06,1.06H148.59a1,1,0,0,1-1.06-1.06V96.81a1,1,0,0,1,1.06-1.06h19.34A1.07,1.07,0,0,1,169,96.81V102a1.07,1.07,0,0,1-1.06,1.06H156.25v3.89h9.48a1.08,1.08,0,0,1,1.06,1.06v5.16a1.08,1.08,0,0,1-1.06,1.06h-9.48v3.89h11.8A1,1,0,0,1,169.12,119.15Z"/><path class="cls-1" d="M199.07,106.92c0,6-3.6,11.76-13.62,11.76h-2.92v5.63a1.08,1.08,0,0,1-1.06,1.06h-6.64a1.08,1.08,0,0,1-1.06-1.06V96.81a1.1,1.1,0,0,1,1.06-1.06h10.62C194.25,95.75,199.07,100.62,199.07,106.92Zm-9,.09c0-1.31-.85-4-5.29-4h-2.28v8.38h2.37C189.51,111.41,190.1,108.32,190.1,107Z"/></svg>
