<svg id="Layer_1" data-name="Layer 1" xmlns="http://www.w3.org/2000/svg" viewBox="0 0 18 18"><defs><style>.cls-1{fill:none;}.cls-2{fill:#ff7a49;}</style></defs><title>videos_icon</title><path class="cls-1" d="M0,0H18V18H0Z"/><path class="cls-2" d="M10.5,3.75A1.5,1.5,0,0,0,9,2.25H8.25V1.5A.75.75,0,0,0,7.5.75h-3a.75.75,0,0,0-.75.75v.75H3a1.5,1.5,0,0,0-1.5,1.5V15A1.5,1.5,0,0,0,3,16.5H9A1.5,1.5,0,0,0,10.5,15h6V3.75ZM9,13.5H7.5V12H9ZM9,6.75H7.5V5.25H9Zm3,6.75H10.5V12H12Zm0-6.75H10.5V5.25H12Zm3,6.75H13.5V12H15Zm0-6.75H13.5V5.25H15Z"/></svg>
